# This file uses centimeters as units for non-parametric coordinates.

mtllib Stone 2.mtl
g default
v 7.000055 0.855244 0.000000
v 5.784490 1.694185 1.590439
v 5.824029 2.240175 1.529132
v 5.470146 2.255811 1.155035
v 5.409616 1.694185 1.215565
v 7.265131 1.707301 1.924520
v 7.260414 2.239034 1.845122
v 6.734979 2.243609 1.841458
v 6.734979 1.707301 1.924520
v 8.590495 1.694185 1.215565
v 8.529188 2.240175 1.176027
v 8.155091 2.255811 1.529909
v 8.215621 1.694185 1.590439
v 5.921436 3.766960 0.703632
v 6.296368 3.767016 1.078562
v 6.292076 4.145998 0.707979
v 6.734979 4.262843 0.826993
v 6.733336 3.885097 1.197103
v 7.265131 3.887419 1.197123
v 7.265131 4.262843 0.826993
v 7.708035 4.145998 0.707979
v 7.703687 3.766960 1.078619
v 8.078674 3.766960 0.703632
v 5.921493 3.767016 -0.703688
v 6.292076 4.145998 -0.707979
v 6.296368 3.767016 -1.078562
v 6.734979 3.887419 -1.197123
v 6.733650 4.262846 -0.825121
v 7.265131 4.262843 -0.826993
v 7.265131 3.887419 -1.197123
v 7.703743 3.767016 -1.078562
v 7.708035 4.145998 -0.707979
v 8.078617 3.767016 -0.703688
v 5.409616 1.694185 -1.215565
v 5.470923 2.240175 -1.176026
v 5.845020 2.255811 -1.529909
v 5.784490 1.694185 -1.590439
v 6.734979 1.707301 -1.924520
v 6.739697 2.239034 -1.845122
v 7.265131 2.243609 -1.841459
v 7.265131 1.707301 -1.924520
v 8.215621 1.694185 -1.590439
v 8.176083 2.240175 -1.529132
v 8.529965 2.255811 -1.155035
v 8.590495 1.694185 -1.215565
v 5.637702 2.755719 1.021464
v 5.996426 2.731129 1.378503
v 6.136086 3.247219 1.205384
v 5.794672 3.247219 0.863969
v 8.205440 3.247219 0.863969
v 7.831057 3.271214 1.205876
v 8.021520 2.755719 1.362354
v 8.362410 2.755719 1.021464
v 5.802932 3.887419 0.265076
v 6.174935 4.262846 0.266405
v 6.173062 4.262843 -0.265076
v 5.802932 3.887419 -0.265076
v 8.197179 3.887419 -0.265076
v 7.825176 4.262846 -0.266405
v 7.827048 4.262843 0.265076
v 8.197179 3.887419 0.265076
v 5.794672 3.247219 -0.863969
v 6.169054 3.271214 -1.205876
v 5.978591 2.755719 -1.362354
v 5.637702 2.755719 -1.021464
v 8.362410 2.755719 -1.021464
v 8.003685 2.731129 -1.378503
v 7.864025 3.247219 -1.205384
v 8.205440 3.247219 -0.863969
v 5.075535 1.707301 0.265076
v 5.154933 2.239034 0.260359
v 5.158597 2.243609 -0.265076
v 5.075535 1.707301 -0.265076
v 8.924576 1.707301 -0.265076
v 8.845178 2.239034 -0.260359
v 8.841514 2.243609 0.265076
v 8.924576 1.707301 0.265076
v 6.734979 3.268684 1.427538
v 6.746184 2.757426 1.623604
v 7.265131 2.746614 1.624625
v 7.265131 3.268684 1.427538
v 6.734979 4.485492 -0.265076
v 6.734979 4.485492 0.265076
v 7.265131 4.485492 0.265076
v 7.265131 4.485492 -0.265076
v 6.734979 2.746614 -1.624625
v 6.747089 3.256519 -1.435439
v 7.265131 3.268684 -1.427538
v 7.265131 2.746614 -1.624625
v 8.427593 3.268684 0.265076
v 8.623660 2.757426 0.253871
v 8.624681 2.746614 -0.265076
v 8.427593 3.268684 -0.265076
v 5.572517 3.268684 -0.265076
v 5.376451 2.757426 -0.253871
v 5.375431 2.746614 0.265076
v 5.572517 3.268684 0.265076
v 5.476411 0.855247 -1.148770
v 5.851285 0.855247 -1.523644
v 7.265131 0.855247 -1.832937
v 7.000055 0.855246 -1.660637
v 6.734979 0.855247 -1.832937
v 5.167119 0.855247 0.265076
v 5.167119 0.855247 -0.265076
v 5.339418 0.855246 0.000000
v 8.523700 0.855247 -1.148770
v 8.148826 0.855247 -1.523644
v 8.832992 0.855247 0.265076
v 8.660692 0.855246 0.000000
v 8.832992 0.855247 -0.265076
v 8.148826 0.855247 1.523644
v 8.523700 0.855247 1.148770
v 6.734979 0.855247 1.832937
v 7.000055 0.855246 1.660637
v 7.265131 0.855247 1.832937
v 5.476411 0.855247 1.148770
v 5.851285 0.855247 1.523644
vt 0.457485 0.264905
vt 0.436788 0.221919
vt 0.550988 0.310692
vt 0.523351 0.317447
vt 0.452549 0.092632
vt 0.505091 0.026767
vt 0.548077 0.006070
vt 0.677363 0.021831
vt 0.743229 0.074373
vt 0.763926 0.117359
vt 0.600357 0.169639
vt 0.748165 0.246645
vt 0.695623 0.312511
vt 0.652637 0.333208
vt 0.529825 0.501257
vt 0.455851 0.501151
vt 0.406067 0.504852
vt 0.398169 0.456456
vt 0.448940 0.591454
vt 0.517307 0.608229
vt 0.500649 0.669479
vt 0.432281 0.652704
vt 0.388090 0.632633
vt 0.391255 0.733045
vt 0.420329 0.818992
vt 0.359904 0.773214
vt 0.318654 0.744570
vt 0.259837 0.474540
vt 0.266336 0.519840
vt 0.254788 0.550947
vt 0.241801 0.591231
vt 0.233162 0.624152
vt 0.191708 0.379903
vt 0.151356 0.409512
vt 0.110854 0.410792
vt 0.032505 0.576968
vt 0.074250 0.550017
vt 0.045204 0.604723
vt 0.043652 0.659922
vt 0.009286 0.284644
vt 0.069159 0.647528
vt 0.395924 0.195694
vt 0.335258 0.240504
vt 0.296035 0.274193
vt 0.258374 0.242557
vt 0.221360 0.065500
vt 0.269500 0.095809
vt 0.190841 0.194951
vt 0.145908 0.173274
vt 0.071324 0.075031
vt 0.117938 0.006070
vt 0.142666 0.020279
vt 0.069610 0.135616
vt 0.031478 0.178251
vt 0.138895 0.866010
vt 0.306833 0.469429
vt 0.360887 0.511205
vt 0.352966 0.577285
vt 0.307324 0.566683
vt 0.278994 0.717409
vt 0.269522 0.650826
vt 0.294896 0.605917
vt 0.340782 0.620844
vt 0.212132 0.411535
vt 0.286308 0.419139
vt 0.195552 0.479917
vt 0.151290 0.517974
vt 0.125891 0.482996
vt 0.168507 0.669399
vt 0.195330 0.722488
vt 0.105866 0.630805
vt 0.095697 0.570441
vt 0.138898 0.556908
vt 0.258839 0.307675
vt 0.260970 0.383542
vt 0.185560 0.312956
vt 0.139263 0.283427
vt 0.164403 0.239912
vt 0.099263 0.760159
vt 0.151933 0.737082
vt 0.055320 0.188477
vt 0.119522 0.217702
vt 0.094317 0.265908
vt 0.391158 0.309767
vt 0.456167 0.280101
vt 0.485299 0.335566
vt 0.374103 0.377390
vt 0.329809 0.399100
vt 0.304980 0.360149
vt 0.291636 0.834321
vt 0.344635 0.888191
vt 0.299237 0.924740
vt 0.212995 0.826635
vt 0.181556 0.786493
vt 0.222857 0.761703
vt 0.400798 0.588420
vt 0.347674 0.704618
vt 0.307681 0.680653
vt 0.313093 0.513380
vt 0.219743 0.504519
vt 0.205020 0.535457
vt 0.192230 0.575664
vt 0.186148 0.610099
vt 0.150929 0.616533
vt 0.169329 0.443261
vt 0.154054 0.349812
vt 0.114354 0.347403
vt 0.067354 0.327866
vt 0.032114 0.299124
vt 0.041091 0.242271
vt 0.224527 0.276760
vt 0.255269 0.801771
vt 0.115125 0.814073
vt 0.085921 0.697119
vt 0.123587 0.683770
vt 0.240575 0.688922
vt 0.202462 0.659841
vt 0.349193 0.337639
vt 0.352940 0.463325
vt 0.238390 0.448015
vt 0.225324 0.341696
vt 0.297759 0.206718
vt 0.222929 0.156985
vt 0.351292 0.151630
vt 0.174789 0.126676
vt 0.095160 0.085666
vt 0.169188 0.916884
vt 0.246238 0.870870
vt 0.223587 0.977387
vt 0.457631 0.766699
vt 0.449469 0.451120
vt 0.420290 0.365232
vt 0.522172 0.436063
vt 0.004665 0.594941
vt 0.022653 0.624921
vt 0.045844 0.130824
vt 0.055777 0.098031
vt 0.023206 0.205557
vt 0.017700 0.236842
vt 0.459303 0.120270
vt 0.436788 0.137663
vt 0.568381 0.333208
vt 0.649726 0.028585
vt 0.632332 0.006070
vt 0.741411 0.219008
vt 0.763926 0.201614
vn 0.000001 -1.000000 0.000001
vn 0.000001 -1.000000 0.000000
vn 0.000001 -1.000000 0.000001
vn 0.000001 -1.000000 0.000001
vn 0.000001 -1.000000 0.000001
vn 0.000001 -1.000000 0.000001
vn 0.000000 -1.000000 0.000001
vn -0.000001 -1.000000 -0.000001
vn -0.000001 -1.000000 -0.000001
vn -0.000001 -1.000000 -0.000001
vn 0.000000 -1.000000 -0.000001
vn -0.000001 -1.000000 -0.000001
vn -0.000001 -1.000000 0.000000
vn -0.000001 -1.000000 -0.000001
vn 0.000001 -1.000000 -0.000001
vn 0.000001 -1.000000 -0.000001
vn 0.000001 -1.000000 -0.000001
vn 0.000001 -1.000000 -0.000001
vn 0.000001 -1.000000 -0.000001
vn -0.000001 -1.000000 0.000001
vn -0.000001 -1.000000 0.000001
vn -0.000001 -1.000000 0.000001
vn -0.000001 -1.000000 0.000001
vn -0.000001 -1.000000 0.000001
vn -0.476255 -0.009905 0.879252
vn -0.879703 -0.009618 0.475426
vn -0.877221 -0.107104 0.467987
vn -0.467987 -0.107104 0.877221
vn -0.465877 0.257399 0.846584
vn -0.214997 -0.007256 0.976588
vn -0.204313 0.259326 0.943931
vn -0.849904 0.261450 0.457500
vn -0.440648 0.389565 0.808745
vn -0.801540 0.390854 0.452512
vn -0.944404 0.258301 0.203425
vn -0.976511 -0.006373 0.215375
vn 0.215375 -0.006372 0.976511
vn -0.216454 -0.104337 0.970702
vn 0.216454 -0.104337 0.970702
vn 0.203425 0.258301 0.944404
vn 0.475426 -0.009618 0.879703
vn 0.456003 0.259473 0.851314
vn 0.188834 0.375545 0.907363
vn -0.184476 0.374982 0.908492
vn 0.879252 -0.009905 0.476254
vn 0.467987 -0.107104 0.877221
vn 0.877221 -0.107105 0.467987
vn 0.847898 0.257350 0.463508
vn 0.976588 -0.007256 0.214997
vn 0.943385 0.260510 0.205328
vn 0.802982 0.392286 0.448701
vn 0.448804 0.392702 0.802721
vn -0.768871 0.445900 0.458270
vn -0.464463 0.753971 0.464545
vn -0.534653 0.828827 0.164901
vn -0.843531 0.510815 0.165903
vn -0.458329 0.446033 0.768758
vn -0.796142 0.368670 0.479833
vn -0.478087 0.368407 0.797314
vn -0.166394 0.509824 0.844033
vn -0.164344 0.828222 0.535761
vn 0.164092 0.828406 0.535553
vn 0.179850 0.967171 0.179539
vn -0.179784 0.967169 0.179619
vn 0.163860 0.512194 0.843094
vn -0.175113 0.351971 0.919485
vn 0.174252 0.352493 0.919448
vn 0.462307 0.444424 0.767307
vn 0.464419 0.754075 0.464420
vn 0.768161 0.443371 0.461899
vn 0.843641 0.510717 0.165647
vn 0.535252 0.828616 0.164015
vn 0.471266 0.368465 0.801337
vn 0.793950 0.370934 0.481716
vn -0.768158 0.443374 -0.461901
vn -0.460695 0.443202 -0.768981
vn -0.470216 0.368315 -0.802023
vn -0.793959 0.370927 -0.481707
vn -0.464298 0.754006 -0.464653
vn -0.843645 0.510708 -0.165651
vn -0.535341 0.828576 -0.163927
vn -0.164895 0.828830 -0.534650
vn -0.165622 0.511796 -0.842991
vn 0.166558 0.511284 -0.843117
vn 0.176421 0.351298 -0.919492
vn -0.171062 0.352077 -0.920207
vn 0.163927 0.828576 -0.535341
vn -0.179768 0.967171 -0.179622
vn 0.179622 0.967171 -0.179769
vn 0.464653 0.754006 -0.464299
vn 0.458428 0.445731 -0.768874
vn 0.768858 0.445911 -0.458280
vn 0.796147 0.368667 -0.479827
vn 0.477963 0.368494 -0.797348
vn 0.534650 0.828830 -0.164896
vn 0.843535 0.510806 -0.165909
vn -0.879252 -0.009904 -0.476255
vn -0.475426 -0.009617 -0.879703
vn -0.467987 -0.107104 -0.877221
vn -0.877221 -0.107104 -0.467987
vn -0.847898 0.257350 -0.463508
vn -0.976588 -0.007256 -0.214998
vn -0.943385 0.260510 -0.205328
vn -0.456004 0.259473 -0.851313
vn -0.802982 0.392286 -0.448700
vn -0.448595 0.392963 -0.802709
vn -0.202828 0.258914 -0.944365
vn -0.215375 -0.006372 -0.976511
vn 0.214997 -0.007256 -0.976588
vn 0.216454 -0.104337 -0.970702
vn -0.216454 -0.104337 -0.970702
vn 0.203543 0.259124 -0.944153
vn -0.188006 0.375385 -0.907601
vn 0.187914 0.374549 -0.907965
vn 0.466600 0.256796 -0.846369
vn 0.476254 -0.009905 -0.879252
vn 0.879703 -0.009618 -0.475426
vn 0.877221 -0.107105 -0.467987
vn 0.467987 -0.107104 -0.877221
vn 0.849904 0.261450 -0.457500
vn 0.441639 0.389600 -0.808188
vn 0.801540 0.390854 -0.452512
vn 0.944404 0.258301 -0.203425
vn 0.976511 -0.006373 -0.215375
vn -0.919509 0.351898 0.175134
vn -0.907558 0.375223 0.188539
vn 0.908206 0.375084 0.185672
vn 0.919621 0.351796 0.174751
vn -0.919618 0.351798 -0.174759
vn 0.919506 0.351901 -0.175141
vn -0.908206 0.375084 -0.185672
vn 0.907558 0.375223 -0.188538
vn -0.970702 -0.104337 -0.216454
vn -0.970702 -0.104337 0.216454
vn 0.970702 -0.104337 0.216454
vn 0.970702 -0.104337 -0.216454
s 1
g pCube9
usemtl initialShadingGroup
f 1/11/1 109/143/2 108/8/3 112/9/4 111/10/5 115/146/6 114/145/7
f 98/1/8 99/2/9 102/141/10 101/140/11 1/11/12 105/3/13 104/4/14
f 101/140/11 100/5/15 107/6/16 106/7/17 110/144/18 109/143/2 1/11/19
f 103/142/20 105/3/13 1/11/21 114/145/7 113/12/22 117/13/23 116/14/24
s 3
f 2/16/25 5/131/26 116/133/27 117/15/28
f 3/17/29 2/16/25 9/19/30 8/96/31
f 4/18/32 3/17/29 47/57/33 46/119/34
f 5/131/26 4/18/32 71/87/35 70/132/36
f 6/22/37 9/19/30 113/20/38 115/21/39
f 7/23/40 6/22/37 13/24/41 12/97/42
f 8/96/31 7/23/40 80/63/43 79/58/44
f 10/26/45 13/24/41 111/130/46 112/25/47
f 11/27/48 10/26/45 77/90/49 76/112/50
f 12/97/42 11/27/48 53/60/51 52/98/52
f 14/28/53 16/100/54 55/66/55 54/120/56
f 15/29/57 14/28/53 49/56/58 48/99/59
f 16/100/54 15/29/57 18/30/60 17/101/61
f 17/101/61 20/102/62 84/73/63 83/67/64
f 19/31/65 18/30/60 78/59/66 81/62/67
f 20/102/62 19/31/65 22/32/68 21/103/69
f 21/103/69 23/117/70 61/69/71 60/104/72
f 23/117/70 22/32/68 51/61/73 50/116/74
f 24/33/75 26/106/76 63/76/77 62/121/78
f 25/34/79 24/33/75 57/64/80 56/105/81
f 26/106/76 25/34/79 28/35/82 27/107/83
f 27/107/83 30/108/84 88/83/85 87/77/86
f 29/38/87 28/36/82 82/37/88 85/72/89
f 30/135/84 29/38/87 32/41/90 31/39/91
f 31/109/91 33/40/92 69/139/93 68/110/94
f 33/114/92 32/41/90 59/71/95 58/115/96
f 34/43/97 37/122/98 99/124/99 98/42/100
f 35/44/101 34/43/97 73/84/102 72/118/103
f 36/45/104 35/44/101 65/74/105 64/111/106
f 37/122/98 36/45/104 39/48/107 38/123/108
f 38/123/108 41/125/109 100/46/110 102/47/111
f 40/49/112 39/48/107 86/78/113 89/82/114
f 41/125/109 40/49/112 43/53/115 42/126/116
f 42/126/116 45/50/117 106/51/118 107/52/119
f 44/136/120 43/53/115 67/81/121 66/54/122
f 45/127/117 44/55/120 75/93/123 74/128/124
f 46/119/34 49/56/58 97/65/125 96/88/126
f 48/99/59 47/57/33 79/58/44 78/59/66
f 50/116/74 53/60/51 91/95/127 90/70/128
f 52/98/52 51/61/73 81/62/67 80/63/43
f 54/120/56 57/64/80 94/75/129 97/65/125
f 56/105/81 55/66/55 83/67/64 82/68/88
f 58/115/96 61/69/71 90/70/128 93/80/130
f 60/104/72 59/71/95 85/72/89 84/73/63
f 62/121/78 65/74/105 95/89/131 94/75/129
f 64/111/106 63/76/77 87/77/86 86/78/113
f 66/113/122 69/79/93 93/80/130 92/94/132
f 68/110/94 67/81/121 89/82/114 88/83/85
f 70/132/36 73/84/102 104/85/133 103/86/134
f 72/118/103 71/87/35 96/88/126 95/89/131
f 74/128/124 77/90/49 108/91/135 110/92/136
f 76/112/50 75/93/123 92/94/132 91/95/127
f 3/17/29 8/96/31 79/58/44 47/57/33
f 7/23/40 12/97/42 52/98/52 80/63/43
f 81/62/67 51/61/73 22/32/68 19/31/65
f 48/99/59 78/59/66 18/30/60 15/29/57
f 16/100/54 17/101/61 83/67/64 55/66/55
f 20/102/62 21/103/69 60/104/72 84/73/63
f 85/72/89 59/71/95 32/41/90 29/38/87
f 56/105/81 82/68/88 28/35/82 25/34/79
f 26/106/76 27/107/83 87/77/86 63/76/77
f 30/108/84 31/109/91 68/110/94 88/83/85
f 89/82/114 67/81/121 43/53/115 40/49/112
f 64/111/106 86/78/113 39/48/107 36/45/104
f 11/27/48 76/112/50 91/95/127 53/60/51
f 75/93/123 44/55/120 66/113/122 92/94/132
f 93/80/130 69/79/93 33/114/92 58/115/96
f 50/116/74 90/70/128 61/69/71 23/117/70
f 35/44/101 72/118/103 95/89/131 65/74/105
f 71/87/35 4/18/32 46/119/34 96/88/126
f 97/65/125 49/56/58 14/28/53 54/120/56
f 62/121/78 94/75/129 57/64/80 24/33/75
f 37/122/98 38/123/108 102/47/111 99/124/99
f 73/84/102 34/43/97 98/42/100 104/85/133
f 41/125/109 42/126/116 107/52/119 100/46/110
f 45/127/117 74/128/124 110/92/136 106/129/118
f 77/90/49 10/26/45 112/25/47 108/91/135
f 13/24/41 6/22/37 115/21/39 111/130/46
f 9/19/30 2/16/25 117/15/28 113/20/38
f 5/131/26 70/132/36 103/86/134 116/133/27
f 2/16/25 3/17/29 4/18/32 5/131/26
f 6/22/37 7/23/40 8/96/31 9/19/30
f 10/26/45 11/27/48 12/97/42 13/24/41
f 14/28/53 15/29/57 16/100/54
f 17/101/61 18/30/60 19/31/65 20/102/62
f 21/103/69 22/32/68 23/117/70
f 24/33/75 25/34/79 26/106/76
f 27/134/83 28/36/82 29/38/87 30/135/84
f 31/39/91 32/41/90 33/114/92
f 34/43/97 35/44/101 36/45/104 37/122/98
f 38/123/108 39/48/107 40/49/112 41/125/109
f 42/126/116 43/53/115 44/136/120 45/137/117
f 46/119/34 47/57/33 48/99/59 49/56/58
f 50/116/74 51/61/73 52/98/52 53/60/51
f 54/120/56 55/66/55 56/105/81 57/64/80
f 58/115/96 59/71/95 60/104/72 61/69/71
f 62/121/78 63/76/77 64/111/106 65/74/105
f 66/138/122 67/81/121 68/110/94 69/139/93
f 70/132/36 71/87/35 72/118/103 73/84/102
f 74/128/124 75/93/123 76/112/50 77/90/49
f 78/59/66 79/58/44 80/63/43 81/62/67
f 82/68/88 83/67/64 84/73/63 85/72/89
f 86/78/113 87/77/86 88/83/85 89/82/114
f 90/70/128 91/95/127 92/94/132 93/80/130
f 94/75/129 95/89/131 96/88/126 97/65/125
s 1
f 100/5/15 101/140/11 102/141/10
f 103/142/20 104/4/14 105/3/13
f 108/8/3 109/143/2 110/144/18
f 113/12/22 114/145/7 115/146/6
