# This file uses centimeters as units for non-parametric coordinates.

mtllib Stone B 1.mtl
g default
v 11.901793 1.169028 -3.826817
v 12.589833 1.169028 -3.138776
v 13.986416 1.675681 -3.883945
v 14.272017 1.169028 -3.138776
v 14.960059 1.169028 -3.826817
v 11.901793 1.169028 -5.301860
v 12.790050 1.558234 -5.140806
v 12.589833 1.169028 -6.197042
v 13.888103 0.946422 -5.789591
v 14.576144 0.946422 -5.220290
v 11.538420 -0.298832 -3.626946
v 15.323431 -0.298832 -3.626946
v 14.117627 -0.298832 -2.459239
v 12.389962 -0.298832 -6.560415
v 14.814134 -0.298832 -5.334234
vt 0.277724 0.663638
vt 0.006154 0.269837
vt 0.175396 0.541993
vt 0.237451 0.739407
vt 0.432657 0.718838
vt 0.104638 0.816546
vt 0.164114 0.219537
vt 0.212932 0.293507
vt 0.006154 0.830923
vt 0.210766 0.958537
vt 0.114202 0.008767
vt 0.280005 0.532640
vt 0.251856 0.426718
vt 0.695767 0.008767
vt 0.260242 0.132053
vt 0.563468 0.411891
vt 0.033861 0.991233
vt 0.034419 0.152277
vt 0.072441 0.716524
vt 0.412025 0.380429
vt 0.695767 0.286601
vt 0.388747 0.066467
vt 0.401240 0.355751
vt 0.129379 0.409113
vn -0.230821 0.964326 0.129600
vn -0.230821 0.964326 0.129600
vn -0.230821 0.964327 0.129600
vn -0.682433 0.261861 0.682432
vn -0.682433 0.261861 0.682432
vn -0.682433 0.261861 0.682432
vn 0.000000 0.826959 0.562262
vn 0.000000 0.826959 0.562262
vn 0.000000 0.826959 0.562262
vn 0.293595 0.887636 -0.354830
vn 0.293595 0.887636 -0.354830
vn 0.293595 0.887636 -0.354830
vn 0.671613 0.260693 0.693524
vn 0.671613 0.260693 0.693524
vn 0.671613 0.260693 0.693524
vn -0.767572 0.250562 -0.589959
vn -0.767572 0.250562 -0.589959
vn -0.767572 0.250562 -0.589959
vn 0.270355 0.885628 -0.377587
vn 0.270355 0.885628 -0.377587
vn 0.270355 0.885628 -0.377587
vn 0.451340 0.009346 -0.892303
vn 0.451340 0.009346 -0.892303
vn 0.451340 0.009346 -0.892303
vn 0.000000 0.420110 0.907474
vn 0.000000 0.420110 0.907474
vn 0.000000 0.420110 0.907473
vn 0.285918 0.889944 -0.355317
vn 0.285918 0.889945 -0.355317
vn 0.285918 0.889945 -0.355317
vn 0.323081 0.185729 -0.927967
vn 0.323081 0.185729 -0.927967
vn 0.323081 0.185729 -0.927967
vn 0.937948 0.204860 -0.279797
vn 0.937948 0.204860 -0.279797
vn 0.937948 0.204860 -0.279797
vn -0.970699 0.240298 0.000000
vn -0.970699 0.240298 0.000000
vn -0.970699 0.240298 0.000000
vn -0.224339 0.948338 0.224339
vn -0.224339 0.948338 0.224339
vn -0.224339 0.948338 0.224339
vn 0.403598 0.821108 0.403598
vn 0.403598 0.821108 0.403598
vn 0.403598 0.821108 0.403598
vn -0.346019 0.899745 -0.265951
vn -0.346019 0.899745 -0.265951
vn -0.346019 0.899745 -0.265951
vn 0.000000 -1.000000 -0.000000
vn 0.000000 -1.000000 -0.000000
vn 0.000000 -1.000000 -0.000000
vn 0.000000 -1.000000 0.000000
vn 0.000000 -1.000000 0.000000
vn 0.000000 -1.000000 0.000000
vn 0.000000 -1.000000 0.000000
vn 0.000000 -1.000000 0.000000
vn 0.000000 -1.000000 0.000000
vn 0.626019 0.188874 -0.756589
vn 0.626019 0.188874 -0.756589
vn 0.626019 0.188874 -0.756589
vn 0.457552 0.849766 -0.261809
vn 0.457552 0.849766 -0.261809
vn 0.457552 0.849766 -0.261809
vn 0.937682 0.192755 -0.289133
vn 0.937682 0.192755 -0.289133
vn 0.937682 0.192755 -0.289133
vn 0.685511 0.245252 0.685512
vn 0.685511 0.245252 0.685512
vn 0.685511 0.245252 0.685512
vn -0.412427 -0.007543 0.910960
vn -0.412427 -0.007543 0.910960
vn -0.412427 -0.007543 0.910960
vn -0.957270 -0.080104 -0.277881
vn -0.957270 -0.080104 -0.277881
vn -0.957270 -0.080104 -0.277881
vn -0.401332 0.915933 0.000000
vn -0.401332 0.915933 0.000000
vn -0.401332 0.915933 0.000000
s off
g pCube11
usemtl initialShadingGroup
f 1/1/1 3/19/2 7/3/3
f 2/4/4 1/1/5 11/5/6
f 3/19/7 2/4/8 4/6/9
f 3/2/10 10/7/11 9/8/12
f 5/9/13 13/10/14 12/17/15
f 6/12/16 8/13/17 14/20/18
f 8/13/19 7/24/20 9/8/21
f 9/8/22 15/15/23 14/20/24
f 2/4/25 13/10/26 4/6/27
f 3/2/28 9/8/29 7/24/30
f 8/13/31 9/8/32 14/20/33
f 10/7/34 12/11/35 15/15/36
f 6/12/37 11/5/38 1/1/39
f 1/1/40 2/4/41 3/19/42
f 3/19/43 4/6/44 5/9/45
f 6/12/46 7/3/47 8/13/48
f 14/14/49 15/21/50 12/16/51
f 14/14/52 12/16/53 11/22/54
f 13/23/55 11/22/56 12/16/57
f 9/8/58 10/7/59 15/15/60
f 3/2/61 5/18/62 10/7/63
f 5/18/64 12/11/65 10/7/66
f 5/9/67 4/6/68 13/10/69
f 2/4/70 11/5/71 13/10/72
f 6/12/73 14/20/74 11/5/75
f 1/1/76 7/3/77 6/12/78
