# This file uses centimeters as units for non-parametric coordinates.

mtllib Stone B 2.mtl
g default
v 14.383913 -0.024713 2.047311
v 15.991014 -0.024710 1.340931
v 13.494756 1.823740 0.889157
v 15.178074 1.790856 0.889157
v 14.383913 2.220326 0.000000
v 15.273070 1.508531 -0.601398
v 12.867386 -0.024713 -1.516526
v 14.383913 -0.024713 -2.047311
v 13.327159 2.000346 -0.022745
v 15.584275 -0.024711 -0.727878
v 13.183551 0.875237 -1.200362
v 14.383913 -0.033203 0.000000
v 12.336602 -0.024713 0.000000
v 14.383913 2.001110 0.969211
v 13.183551 0.875237 1.200362
v 15.584275 1.616736 0.282736
v 14.383913 0.875237 1.600483
v 14.383913 0.875237 -1.600483
v 12.783430 0.875237 0.000000
v 12.827488 -0.024713 1.339356
vt 0.282750 0.051527
vt 0.340409 0.168764
vt 0.209010 0.274057
vt 0.525181 0.002698
vt 0.494571 0.264895
vt 0.410685 0.316544
vt 0.310730 0.356023
vt 0.419160 0.570854
vt 0.312110 0.472574
vt 0.504775 0.748449
vt 0.383966 0.737481
vt 0.198788 0.735052
vt 0.625823 0.648153
vt 0.098334 0.815661
vt 0.002690 0.615365
vt 0.742245 0.506812
vt 0.876154 0.274845
vt 0.015986 0.394368
vt 0.131898 0.589067
vt 0.145872 0.428480
vt 0.099904 0.212905
vt 0.654023 0.254751
vt 0.589433 0.272964
vt 0.589433 0.997302
vt 0.486599 0.410972
vt 0.319081 0.930438
vt 0.466720 0.434069
vt 0.994305 0.418590
vt 0.994305 0.628174
vt 0.830466 0.758872
vn -0.286081 0.426121 0.858242
vn -0.286081 0.426121 0.858242
vn -0.286081 0.426121 0.858242
vn 0.366317 0.413795 0.833418
vn 0.366317 0.413795 0.833418
vn 0.366317 0.413795 0.833418
vn 0.212443 0.477901 0.852337
vn 0.212443 0.477901 0.852337
vn 0.212443 0.477901 0.852337
vn -0.236684 0.431107 0.870705
vn -0.236684 0.431107 0.870705
vn -0.236684 0.431107 0.870705
vn -0.236684 0.431107 0.870705
vn -0.206306 0.953654 0.219048
vn -0.206306 0.953654 0.219048
vn -0.206306 0.953654 0.219048
vn -0.206306 0.953654 0.219048
vn 0.364537 0.923372 0.120406
vn 0.364537 0.923372 0.120406
vn 0.364537 0.923372 0.120406
vn 0.364537 0.923372 0.120406
vn 0.482665 0.832566 -0.271786
vn 0.482665 0.832566 -0.271786
vn 0.482665 0.832566 -0.271786
vn 0.174935 0.753738 -0.633464
vn 0.174935 0.753738 -0.633464
vn 0.174935 0.753738 -0.633464
vn 0.668106 0.194845 -0.718102
vn 0.668106 0.194845 -0.718102
vn 0.668106 0.194845 -0.718102
vn 0.701571 0.316897 -0.638259
vn 0.701571 0.316897 -0.638259
vn 0.701571 0.316897 -0.638259
vn -0.299133 0.424344 -0.854665
vn -0.299133 0.424344 -0.854665
vn -0.299133 0.424344 -0.854665
vn -0.001451 -0.999990 -0.004147
vn -0.001451 -0.999990 -0.004147
vn -0.001451 -0.999990 -0.004147
vn -0.001886 -0.999990 0.004147
vn -0.001886 -0.999990 0.004147
vn -0.001886 -0.999990 0.004147
vn 0.006321 -0.999979 -0.001242
vn 0.006321 -0.999979 -0.001242
vn 0.006321 -0.999979 -0.001242
vn 0.974367 0.117946 -0.191566
vn 0.974367 0.117947 -0.191566
vn 0.974367 0.117946 -0.191566
vn 0.794535 0.455641 0.401380
vn 0.794535 0.455641 0.401380
vn 0.794535 0.455641 0.401380
vn -0.861482 0.408578 -0.301518
vn -0.861482 0.408578 -0.301518
vn -0.861482 0.408578 -0.301518
vn -0.858243 0.426119 0.286081
vn -0.858242 0.426119 0.286081
vn -0.858243 0.426119 0.286081
vn -0.874459 0.403822 0.268793
vn -0.874459 0.403822 0.268793
vn -0.874459 0.403822 0.268793
vn -0.874459 0.403822 0.268793
vn -0.136283 0.724545 -0.675619
vn -0.136283 0.724545 -0.675619
vn -0.136283 0.724545 -0.675619
vn 0.001824 -0.999990 0.004147
vn 0.001824 -0.999990 0.004147
vn 0.001824 -0.999990 0.004147
vn 0.912931 0.213968 -0.347528
vn 0.912931 0.213968 -0.347528
vn 0.912931 0.213968 -0.347527
vn 0.346225 0.369591 0.862282
vn 0.346225 0.369591 0.862282
vn 0.346225 0.369591 0.862282
vn 0.004559 -0.999981 -0.004147
vn 0.004559 -0.999981 -0.004147
vn 0.004559 -0.999981 -0.004147
vn -0.004147 -0.999990 -0.001451
vn -0.004147 -0.999990 -0.001451
vn -0.004147 -0.999990 -0.001451
vn -0.209693 0.748523 -0.629080
vn -0.209693 0.748523 -0.629080
vn -0.209693 0.748523 -0.629080
vn -0.288979 0.406090 -0.866938
vn -0.288979 0.406090 -0.866938
vn -0.288979 0.406090 -0.866938
vn -0.864452 0.411937 -0.288151
vn -0.864452 0.411937 -0.288151
vn -0.864452 0.411937 -0.288151
vn -0.858242 0.426119 -0.286081
vn -0.858243 0.426119 -0.286081
vn -0.858243 0.426119 -0.286081
vn -0.396096 0.291207 0.870808
vn -0.396096 0.291207 0.870808
vn -0.396096 0.291207 0.870808
vn -0.864235 0.390854 0.316750
vn -0.864235 0.390854 0.316750
vn -0.864235 0.390854 0.316750
vn -0.004147 -0.999990 0.001520
vn -0.004147 -0.999990 0.001520
vn -0.004147 -0.999990 0.001520
s off
g pCube1
usemtl initialShadingGroup
f 1/1/1 17/2/2 15/3/3
f 1/1/4 2/4/5 17/2/6
f 17/2/7 4/5/8 14/6/9
f 15/3/10 17/2/11 14/6/12 3/7/13
f 3/7/14 14/6/15 5/27/16 9/9/17
f 14/6/18 4/5/19 16/23/20 5/27/21
f 5/8/22 16/10/23 6/11/24
f 5/8/25 6/11/26 18/12/27
f 6/11/28 10/26/29 18/12/30
f 18/12/31 10/26/32 8/14/33
f 7/15/34 18/12/35 8/14/36
f 7/29/37 8/30/38 12/16/39
f 20/17/40 12/16/41 1/22/42
f 12/16/43 10/13/44 2/25/45
f 2/24/46 10/26/47 16/10/48
f 4/5/49 2/4/50 16/23/51
f 7/15/52 13/18/53 11/19/54
f 13/18/55 15/3/56 19/20/57
f 19/20/58 15/3/59 3/7/60 9/9/61
f 11/19/62 9/9/63 5/8/64
f 12/16/65 2/25/66 1/22/67
f 16/10/68 10/26/69 6/11/70
f 17/2/71 2/4/72 4/5/73
f 12/16/74 8/30/75 10/13/76
f 7/29/77 12/16/78 13/28/79
f 5/8/80 18/12/81 11/19/82
f 11/19/83 18/12/84 7/15/85
f 11/19/86 19/20/87 9/9/88
f 11/19/89 13/18/90 19/20/91
f 15/3/92 20/21/93 1/1/94
f 13/18/95 20/21/96 15/3/97
f 13/28/98 12/16/99 20/17/100
