# This file uses centimeters as units for non-parametric coordinates.

v 6.126263 0.996925 10.599541
v 6.234596 1.296394 10.640194
v 6.031993 1.430898 10.476000
v 5.875610 1.291781 10.226420
v 5.911635 0.989509 10.390408
v 6.613103 1.973536 10.397418
v 6.332973 1.840059 10.395037
v 6.535833 1.716471 10.552328
v 6.606277 3.608796 8.265903
v 6.317066 3.520351 8.151466
v 6.335565 3.432733 8.466702
v 6.606739 3.506964 8.548235
v 5.877481 2.931375 8.195086
v 6.021423 3.219677 8.247120
v 6.164382 3.415901 8.045020
v 6.020753 3.219807 7.844128
v 5.877481 2.931375 7.894954
v 8.088448 0.989793 10.390506
v 8.124044 1.290092 10.231915
v 7.968118 1.430898 10.476000
v 7.761847 1.298229 10.639810
v 7.873818 0.996928 10.599543
v 7.385724 1.974236 10.396583
v 7.464278 1.716472 10.552328
v 7.666991 1.840036 10.394928
v 8.122646 2.931985 7.894449
v 7.978669 3.219984 7.842639
v 7.835492 3.415078 8.045261
v 7.979066 3.219151 8.246110
v 8.122628 2.931783 8.194582
v 7.393712 3.607851 8.270155
v 7.390273 3.505682 8.549870
v 7.665878 3.424905 8.470428
v 7.681001 3.519581 8.153241
v 6.606735 3.507246 7.542144
v 6.331331 3.426028 7.621745
v 6.317895 3.520919 7.936824
v 6.606275 3.609066 7.824478
v 6.535406 1.716238 5.536361
v 6.327094 1.838489 5.700762
v 6.613020 1.972651 5.691211
v 5.911665 0.989492 5.699236
v 5.876068 1.289628 5.857522
v 6.031900 1.430665 5.613800
v 6.238529 1.298882 5.449524
v 6.126066 0.997352 5.489728
v 7.391325 3.505632 7.540194
v 7.393060 3.608676 7.824548
v 7.681985 3.520084 7.938027
v 7.669246 3.426066 7.621752
v 7.873678 1.001711 5.484015
v 7.765862 1.301067 5.443985
v 7.968074 1.436021 5.608041
v 8.124521 1.296712 5.857981
v 8.088544 0.994606 5.692629
v 7.394689 1.968665 5.686366
v 7.675076 1.834283 5.687713
v 7.472058 1.711106 5.531102
v 8.383685 0.990488 7.891512
v 8.398023 1.288030 7.889541
v 8.398688 1.285519 8.191886
v 8.383681 0.990171 8.191645
v 5.616518 0.987654 8.194979
v 5.602084 1.285190 8.197301
v 5.601418 1.282987 7.894954
v 5.616521 0.987647 7.894845
v 8.321736 0.764837 8.191644
v 8.191931 0.764849 8.041752
v 8.321737 0.765090 7.891511
v 5.678399 0.762920 8.194818
v 5.678400 0.762920 7.894685
v 5.808179 0.763035 8.044577
v 6.179534 0.763310 5.617194
v 5.957771 0.762920 5.828101
v 8.042356 0.766831 5.822137
v 7.820066 0.766618 5.612047
v 5.957738 0.762920 10.261169
v 6.179762 0.762920 10.471708
v 8.042330 0.763097 10.261207
v 7.820315 0.762920 10.471708
vt 0.978207 0.441312
vt 0.994060 0.455300
vt 0.994021 0.677676
vt 0.973595 0.703128
vt 0.800302 0.727078
vt 0.773814 0.708048
vt 0.710484 0.238940
vt 0.730942 0.213528
vt 0.904311 0.190121
vt 0.930777 0.209203
vt 0.710484 0.461632
vt 0.766506 0.706181
vt 0.768942 0.723678
vt 0.749110 0.732057
vt 0.723967 0.675184
vt 0.745462 0.702009
vt 0.763364 0.128576
vt 0.746805 0.120838
vt 0.718647 0.096501
vt 0.645942 0.617726
vt 0.673459 0.643168
vt 0.750997 0.189517
vt 0.458525 0.422761
vt 0.441312 0.378308
vt 0.434543 0.396845
vt 0.427466 0.362819
vt 0.467562 0.327004
vt 0.484158 0.282626
vt 0.498330 0.065046
vt 0.456849 0.307648
vt 0.440592 0.324632
vt 0.437681 0.278193
vt 0.578143 0.777815
vt 0.537877 0.811488
vt 0.539839 0.786768
vt 0.516867 0.753907
vt 0.547991 0.736075
vt 0.589059 0.690229
vt 0.555718 0.685424
vt 0.395193 0.480154
vt 0.325165 0.573302
vt 0.309312 0.754265
vt 0.293574 0.571056
vt 0.290029 0.534033
vt 0.317175 0.508804
vt 0.369732 0.503794
vt 0.345253 0.453794
vt 0.330746 0.438973
vt 0.402773 0.361305
vt 0.337596 0.420412
vt 0.379070 0.336968
vt 0.199291 0.155773
vt 0.129114 0.193219
vt 0.186405 0.123142
vt 0.228475 0.078394
vt 0.240231 0.003719
vt 0.237660 0.028088
vt 0.466596 0.062338
vt 0.194083 0.071987
vt 0.052672 0.133200
vt 0.261911 0.478859
vt 0.267433 0.495297
vt 0.023700 0.629286
vt 0.011086 0.100562
vt 0.008742 0.081201
vt 0.028659 0.073781
vt 0.011646 0.688946
vt 0.018556 0.634888
vt 0.034882 0.641437
vt 0.056551 0.720818
vt 0.277503 0.751733
vt 0.309031 0.786801
vt 0.308734 0.811756
vt 0.275466 0.809582
vt 0.467196 0.029859
vt 0.467710 0.004969
vt 0.500843 0.007302
vt 0.739782 0.177355
vt 0.506425 0.322328
vt 0.582558 0.741685
vt 0.336483 0.538170
vt 0.404395 0.311909
vt 0.220470 0.128559
vt 0.370938 0.454894
vt 0.028217 0.696531
vt 0.101431 0.165641
vt 0.576141 0.659035
vt 0.313736 0.395875
vt 0.480834 0.245616
vt 0.306324 0.489352
vt 0.259915 0.060900
vt 0.449317 0.243183
vt 0.197515 0.035882
vt 0.030008 0.104827
vt 0.197218 0.010991
vt 0.034827 0.751917
vt 0.275767 0.784620
vt 0.045836 0.779332
vt 0.581020 0.803079
vt 0.740443 0.065482
vt 0.500326 0.032192
vt 0.729622 0.038172
vt 0.767832 0.094422
vt 0.756128 0.183890
vt 0.499669 0.345553
vt 0.512033 0.337947
vt 0.369752 0.478822
vt 0.333261 0.491527
vt 0.404209 0.336803
vt 0.312324 0.420154
vt 0.007280 0.723096
vt 0.726340 0.475620
vt 0.714766 0.493349
vt 0.989778 0.423583
vn 0.001297 -0.999999 -0.000421
vn 0.000866 -1.000000 -0.000421
vn 0.000866 -1.000000 -0.000420
vn 0.001297 -0.999999 -0.000420
vn 0.001297 -0.999999 -0.000421
vn 0.001297 -0.999999 -0.000421
vn 0.001297 -0.999999 -0.000421
vn 0.001297 -0.999999 -0.000421
vn 0.000435 -1.000000 -0.000421
vn 0.000435 -1.000000 -0.000421
vn 0.000435 -1.000000 -0.000421
vn 0.000435 -1.000000 -0.000421
vn 0.000436 -1.000000 -0.000420
vn 0.000436 -1.000000 -0.000421
vn -0.601907 -0.484471 0.634820
vn -0.601907 -0.484471 0.634820
vn -0.601906 -0.484471 0.634820
vn -0.601907 -0.484471 0.634820
vn -0.051595 0.046069 0.997605
vn 0.000096 -0.313281 0.949661
vn 0.000096 -0.313908 0.949454
vn 0.076741 0.049302 0.995831
vn -0.753848 0.468860 0.460307
vn -0.058264 0.310698 0.948721
vn -0.587071 0.609526 0.532753
vn -0.959582 0.184683 0.212353
vn -0.773149 0.521101 0.361516
vn -0.945230 0.277175 0.172376
vn -0.980490 -0.145505 0.132164
vn -0.988103 0.111679 0.105736
vn -0.982822 -0.143504 0.116049
vn -0.105004 0.742952 0.661057
vn 0.058451 0.310672 0.948718
vn 0.106400 0.743054 0.660719
vn -0.104692 0.789013 0.605391
vn -0.565186 0.654986 0.501556
vn -0.081103 0.985478 0.149182
vn 0.105158 0.788997 0.605331
vn 0.084596 0.984790 0.151763
vn -0.465085 0.871110 0.157682
vn -0.082350 0.985306 -0.149638
vn -0.464653 0.870785 -0.160721
vn -0.752290 0.658832 -0.000768
vn -0.945368 0.276954 -0.171977
vn -0.988112 0.111716 -0.105610
vn -0.774232 0.520772 -0.359667
vn -0.565244 0.654501 -0.502122
vn -0.754853 0.467729 -0.459812
vn -0.959676 0.184265 -0.212293
vn 0.602091 -0.484428 0.634677
vn 0.602091 -0.484428 0.634678
vn 0.602091 -0.484428 0.634678
vn 0.602091 -0.484428 0.634678
vn 0.959626 0.184422 0.212384
vn 0.980456 -0.146010 0.131860
vn 0.982786 -0.144087 0.115632
vn 0.988113 0.111709 0.105609
vn 0.753387 0.469433 0.460479
vn 0.945252 0.277216 0.172189
vn 0.772684 0.522141 0.361009
vn 0.585952 0.610388 0.532997
vn 0.564620 0.654891 0.502316
vn 0.945174 0.277749 -0.171761
vn 0.988085 0.112039 -0.105521
vn 0.774460 0.521324 -0.358375
vn 0.959563 0.185317 -0.211889
vn 0.755070 0.469011 -0.458146
vn 0.750588 0.660766 0.002564
vn 0.563697 0.656705 -0.500984
vn 0.463656 0.871677 -0.158753
vn 0.464678 0.870468 0.162359
vn 0.083993 0.985195 -0.149452
vn -0.106936 0.788913 -0.605129
vn 0.104977 0.789270 -0.605006
vn -0.107277 0.742958 -0.660686
vn -0.586627 0.610080 -0.532609
vn -0.063109 0.313926 -0.947348
vn 0.106634 0.743129 -0.660597
vn 0.053985 0.311576 -0.948686
vn -0.080801 0.050851 -0.995432
vn -0.602705 -0.483539 -0.634772
vn -0.602705 -0.483539 -0.634772
vn -0.602705 -0.483539 -0.634772
vn -0.602705 -0.483539 -0.634772
vn -0.980419 -0.145990 -0.132157
vn -0.982745 -0.144153 -0.115897
vn -0.002467 -0.313421 -0.949611
vn 0.047230 0.045502 -0.997847
vn -0.002473 -0.311737 -0.950165
vn 0.585988 0.611512 -0.531669
vn 0.601481 -0.483522 -0.635946
vn 0.601481 -0.483522 -0.635946
vn 0.601481 -0.483522 -0.635946
vn 0.601481 -0.483522 -0.635946
vn 0.980535 -0.145238 -0.132123
vn 0.982876 -0.143124 -0.116060
vn 0.957462 -0.265416 0.113226
vn 0.957482 -0.265141 -0.113703
vn -0.957360 -0.265630 -0.113593
vn -0.957321 -0.265782 0.113563
vn -0.955486 -0.265387 -0.128908
vn -0.001733 -0.478280 -0.878206
vn -0.001733 -0.478280 -0.878206
vn 0.955612 -0.264891 -0.128992
vn 0.000000 -0.479412 0.877590
vn 0.000000 -0.479412 0.877590
vn -0.955439 -0.265559 0.128902
vn 0.955589 -0.265203 0.128516
vn -0.667787 0.066002 0.741420
vn -0.768352 0.086544 0.634150
vn 0.765087 0.084996 0.638293
vn 0.664836 0.067322 0.743949
vn -0.765736 0.085238 -0.637482
vn -0.665770 0.068075 -0.743045
vn 0.666821 0.067017 -0.742199
vn 0.767884 0.087977 -0.634519
vn 0.584403 0.102840 -0.804921
vn -0.584508 0.102173 0.804929
s 1
f 69/113/1 68/112/2 72/1/3 71/2/4 74/3/5 73/4/6 76/5/7 75/6/8
f 79/7/9 80/8/10 78/9/11 77/10/12 70/114/13 72/1/3 68/112/2 67/11/14
s off
f 1/16/15 5/12/16 77/13/17 78/14/18
s 2
f 2/15/19 1/16/20 22/33/21 21/80/22
f 3/18/23 2/17/19 8/104/24 7/78/25
f 4/19/26 3/18/23 14/28/27 13/89/28
f 5/100/29 4/19/26 64/29/30 63/101/31
f 6/20/32 8/21/24 24/38/33 23/87/34
f 7/78/25 6/22/32 12/106/35 11/79/36
f 9/25/37 12/23/35 32/40/38 31/84/39
f 10/24/40 9/25/37 38/49/41 37/26/42
f 11/79/36 10/27/40 15/30/43 14/28/27
f 13/89/28 17/92/44 65/58/45 64/29/30
f 16/32/46 15/30/43 37/31/42 36/82/47
f 17/92/44 16/32/46 44/55/48 43/91/49
s off
f 18/35/50 22/33/51 80/99/52 79/34/53
s 2
f 19/36/54 18/35/55 62/72/56 61/42/57
f 20/37/58 19/36/54 30/41/59 29/81/60
f 21/80/22 20/37/58 25/39/61 24/38/33
f 23/87/34 25/39/61 33/46/62 32/40/38
f 26/43/63 30/41/59 61/42/57 60/71/64
f 27/44/65 26/43/63 54/70/66 53/85/67
f 28/45/68 27/44/65 50/62/69 49/90/70
f 29/81/60 28/45/68 34/108/71 33/46/62
f 31/84/39 34/47/71 49/48/70 48/50/72
f 35/51/73 38/49/41 48/50/72 47/88/74
f 36/82/47 35/51/73 41/52/75 40/83/76
f 39/54/77 41/52/75 56/53/78 58/86/79
f 40/83/76 39/54/77 45/59/80 44/55/48
s off
f 42/57/81 46/93/82 73/95/83 74/56/84
s 2
f 43/91/49 42/57/85 66/75/86 65/58/45
f 46/93/87 45/59/80 52/60/88 51/94/89
f 47/61/74 50/62/69 57/69/90 56/63/78
s off
f 51/94/91 55/64/92 75/65/93 76/66/94
s 2
f 53/85/67 52/67/88 58/68/79 57/69/90
f 55/96/95 54/70/66 60/71/64 59/97/96
f 59/97/96 62/72/56 67/73/97 69/74/98
f 63/101/31 66/75/86 71/76/99 70/77/100
f 3/18/23 7/78/25 11/79/36 14/28/27
f 8/21/24 2/15/19 21/80/22 24/38/33
f 25/39/61 20/37/58 29/81/60 33/46/62
f 16/32/46 36/82/47 40/83/76 44/55/48
f 38/49/41 9/25/37 31/84/39 48/50/72
f 50/62/69 27/44/65 53/85/67 57/69/90
f 45/59/80 39/54/77 58/86/79 52/60/88
f 6/20/32 23/87/34 32/40/38 12/23/35
f 35/51/73 47/88/74 56/53/78 41/52/75
f 26/43/63 60/71/64 54/70/66
f 13/89/28 64/29/30 4/19/26
f 15/30/43 10/27/40 37/31/42
f 49/90/70 34/108/71 28/45/68
f 43/91/49 65/58/45 17/92/44
f 30/41/59 19/36/54 61/42/57
f 66/75/86 42/57/85 74/56/101 71/76/99
f 46/93/87 51/94/89 76/66/102 73/95/103
f 55/96/95 59/97/96 69/74/98 75/98/104
f 22/33/21 1/16/20 78/14/105 80/99/106
f 5/100/29 63/101/31 70/77/100 77/102/107
f 62/72/56 18/35/55 79/34/108 67/73/97
f 1/103/109 3/18/23 5/100/110
f 6/22/32 7/78/25 8/104/24
f 9/105/37 10/27/40 11/79/36 12/106/35
f 13/89/28 14/28/27 15/30/43 16/32/46 17/92/44
f 18/35/111 20/37/58 22/33/112
f 23/87/34 24/38/33 25/39/61
f 26/43/63 27/44/65 28/45/68 29/81/60 30/41/59
f 31/107/39 32/40/38 33/46/62 34/108/71
f 35/51/73 36/82/47 37/31/42 38/109/41
f 39/54/77 40/83/76 41/52/75
f 42/57/113 44/55/48 46/93/114
f 47/88/74 48/50/72 49/48/70 50/110/69
f 51/111/115 53/85/67 55/96/116
f 56/63/78 57/69/90 58/68/79
f 59/97/96 60/71/64 61/42/57 62/72/56
f 63/101/31 64/29/30 65/58/45 66/75/86
s 1
f 67/11/14 68/112/2 69/113/1
f 70/114/13 71/2/4 72/1/3
s 2
f 55/96/116 53/85/67 54/70/66
f 51/111/115 52/67/117 53/85/67
f 18/35/111 19/36/54 20/37/58
f 22/33/112 20/37/58 21/80/22
f 1/103/109 2/17/118 3/18/23
f 5/100/110 3/18/23 4/19/26
f 42/57/113 43/91/49 44/55/48
f 46/93/114 44/55/48 45/59/80
