# This file uses centimeters as units for non-parametric coordinates.

mtllib Tree LowPoly Export.mtl
g default
v 2.089787 -2.514423 -1.751318
v 1.262054 -2.514423 -1.225348
v 2.089787 -1.533718 -1.751318
v 1.262054 -1.533718 -1.225348
v 2.615755 -1.533718 -0.923586
v 1.788025 -1.533718 -0.397617
v 2.615755 -2.514423 -0.923586
v 1.788025 -2.514423 -0.397617
v 2.497625 -1.362094 -1.429496
v 1.735214 -2.024070 -0.160719
v 2.293936 -2.686048 -0.515749
v 2.852655 -2.024070 -0.870777
v 1.380188 -2.686048 -0.719439
v 2.497625 -2.686048 -1.429496
v 1.583878 -2.686048 -1.633187
v 1.025158 -2.024070 -1.278157
v 1.583878 -1.362094 -1.633187
v 2.142597 -2.024070 -1.988215
v 1.380188 -1.362094 -0.719439
v 2.293936 -1.362094 -0.515749
v 1.465536 -2.024070 -1.819426
v 1.938908 -1.141436 -1.074466
v 2.412279 -2.024070 -0.329508
v 1.938908 -2.906706 -1.074466
v 1.193945 -2.024070 -0.601096
v 2.683863 -2.024070 -1.547840
v 1.166706 -5.471306 -1.748259
v -0.919453 -5.471306 -1.583493
v -1.834352 -5.471306 0.058208
v -0.803034 -5.471306 1.441206
v 1.140835 -5.471306 1.631842
v 1.900169 -5.471306 -0.148755
v 0.803820 -0.570197 -1.242690
v -0.631113 -0.570197 -1.242690
v -1.348581 -0.570197 -0.000000
v -0.631113 -0.570197 1.242690
v 0.803820 -0.570197 1.242690
v 1.521288 -0.570197 0.000000
v 0.086353 -5.471306 0.000000
v 0.086353 -0.570197 0.000000
v 0.613235 -4.619430 -0.912589
v 0.613235 -1.422073 -0.912589
v -0.440531 -1.422073 -0.912589
v -0.440531 -4.619430 -0.912589
v -0.967415 -1.422073 -0.000000
v -0.967415 -4.619430 -0.000000
v -0.440531 -1.422073 0.912589
v -0.440531 -4.619430 0.912589
v 0.613235 -1.422073 0.912589
v 0.613235 -4.619430 0.912589
v 1.140120 -1.422073 0.000000
v 1.140120 -4.619430 0.000000
v 0.852278 -2.495657 -0.078701
v 0.957087 -2.766030 -0.145300
v 0.871302 -2.901217 -0.396075
v 0.680706 -2.766030 -0.580249
v 0.575897 -2.495657 -0.513650
v 0.661682 -2.360471 -0.262875
v 1.941069 -1.903164 -0.770556
v 2.045879 -2.173537 -0.837156
v 1.960094 -2.308723 -1.087930
v 1.769499 -2.173537 -1.272104
v 1.664688 -1.903164 -1.205504
v 1.750473 -1.767979 -0.954731
v 0.766491 -2.630844 -0.329475
v 1.855282 -2.038351 -1.021330
v -0.588499 -3.097015 -0.354575
v -0.759382 -3.469076 -0.354575
v -0.844826 -3.655107 -0.000000
v -0.759382 -3.469076 0.354575
v -0.588499 -3.097015 0.354575
v -0.503056 -2.910985 0.000000
v -2.363688 -2.281684 -0.354575
v -2.534573 -2.653745 -0.354575
v -2.620014 -2.839775 -0.000000
v -2.534573 -2.653745 0.354575
v -2.363688 -2.281684 0.354575
v -2.278246 -2.095654 0.000000
v -0.673941 -3.283046 0.000000
v -2.449129 -2.467714 0.000000
v -3.260246 -3.122840 0.674776
v -1.910694 -3.122840 0.674776
v -3.260246 -1.773287 0.674776
v -1.910694 -1.773287 0.674776
v -3.260246 -1.773287 -0.674776
v -1.910694 -1.773287 -0.674776
v -3.260246 -3.122840 -0.674776
v -1.910694 -3.122840 -0.674776
v -3.496418 -1.537115 0.000000
v -1.674522 -2.448063 -0.910948
v -2.585470 -3.359012 -0.910948
v -3.496418 -2.448063 -0.910948
v -1.674522 -3.359012 0.000000
v -3.496418 -3.359012 0.000000
v -2.585470 -3.359012 0.910948
v -1.674522 -2.448063 0.910948
v -2.585470 -1.537115 0.910948
v -3.496418 -2.448063 0.910948
v -1.674522 -1.537115 0.000000
v -2.585470 -1.537115 -0.910948
v -2.585470 -2.448063 1.214598
v -2.585470 -1.233466 0.000000
v -2.585470 -2.448063 -1.214598
v -2.585470 -3.662661 0.000000
v -1.370872 -2.448063 0.000000
v -3.800068 -2.448063 0.000000
v -1.976824 -0.305588 2.063176
v 2.149530 -0.305588 2.063176
v -1.976824 3.820764 2.063176
v 2.149530 3.820764 2.063176
v -1.976824 3.820764 -2.063176
v 2.149530 3.820764 -2.063176
v -1.976824 -0.305588 -2.063176
v 2.149530 -0.305588 -2.063176
v -2.698935 4.542875 0.000000
v 2.871641 1.757588 -2.785288
v 0.086353 -1.027699 -2.785288
v -2.698935 1.757588 -2.785288
v 2.871641 -1.027699 0.000000
v -2.698935 -1.027699 0.000000
v 0.086353 -1.027699 2.785288
v 2.871641 1.757588 2.785288
v 0.086353 4.542875 2.785288
v -2.698935 1.757588 2.785288
v 2.871641 4.542875 0.000000
v 0.086353 4.542875 -2.785288
v 0.086353 1.757588 3.713717
v 0.086353 5.471305 0.000000
v 0.086353 1.757588 -3.713717
v 0.086353 -1.956129 0.000000
v 3.800070 1.757588 0.000000
v -3.627363 1.757588 0.000000
vt 0.040918 0.559510
vt 0.049432 0.594111
vt 0.853395 0.368175
vt 0.878372 0.415851
vt 0.057947 0.628712
vt 0.028435 0.653101
vt 0.890854 0.322260
vt 0.899369 0.356861
vt 0.907883 0.391462
vt 0.860567 0.172302
vt 0.860567 0.226124
vt 0.920366 0.297872
vt 0.915056 0.149014
vt 0.906541 0.183615
vt 0.898027 0.218216
vt 0.785256 0.102624
vt 0.810233 0.150300
vt 0.952516 0.141106
vt 0.822716 0.056710
vt 0.831231 0.091310
vt 0.839745 0.125911
vt 0.095407 0.582797
vt 0.070430 0.535122
vt 0.852228 0.032321
vt 0.928231 0.095477
vt 0.921058 0.445000
vt 0.945343 0.399370
vt 0.027742 0.505973
vt 0.852920 0.179449
vt 0.884852 0.271754
vt 0.003458 0.551602
vt 0.927539 0.242605
vt 0.877205 0.133819
vt 0.885544 0.124626
vt 0.809541 0.003172
vt 0.071122 0.682250
vt 0.877679 0.268723
vt 0.785256 0.048802
vt 0.853395 0.314352
vt 0.095407 0.636620
vt 0.877205 0.079997
vt 0.952516 0.194929
vt 0.945343 0.345548
vt 0.003458 0.605425
vt 0.916675 0.558694
vt 0.916675 0.655274
vt 0.836897 0.606984
vt 0.833034 0.510404
vt 0.749394 0.558694
vt 0.749394 0.655274
vt 0.833034 0.703564
vt 0.801699 0.763040
vt 0.737891 0.799879
vt 0.736417 0.723648
vt 0.674083 0.763040
vt 0.674083 0.689361
vt 0.737891 0.652521
vt 0.801699 0.689361
vt 0.350960 0.624772
vt 0.350960 0.815926
vt 0.308583 0.815926
vt 0.308583 0.624772
vt 0.096700 0.815926
vt 0.096700 0.624772
vt 0.139076 0.624772
vt 0.139076 0.815926
vt 0.181453 0.624772
vt 0.181453 0.815926
vt 0.223830 0.624772
vt 0.223830 0.815926
vt 0.266207 0.624772
vt 0.266207 0.815926
vt 0.139076 0.911522
vt 0.096700 0.911522
vt 0.181453 0.911522
vt 0.223830 0.911522
vt 0.266207 0.911522
vt 0.308583 0.911522
vt 0.350960 0.911522
vt 0.096700 0.529175
vt 0.139076 0.529175
vt 0.181453 0.529175
vt 0.223830 0.529175
vt 0.266207 0.529175
vt 0.308583 0.529175
vt 0.350960 0.529175
vt 0.995327 0.989006
vt 0.980040 0.989006
vt 0.980040 0.851072
vt 0.995327 0.851072
vt 0.964752 0.989006
vt 0.964752 0.851072
vt 0.949465 0.989006
vt 0.949465 0.851072
vt 0.934177 0.989006
vt 0.934177 0.851072
vt 0.918889 0.989006
vt 0.918889 0.851072
vt 0.903602 0.989006
vt 0.903602 0.851072
vt 0.118767 0.013683
vt 0.118767 0.034706
vt 0.101402 0.024194
vt 0.100561 0.003172
vt 0.082355 0.013683
vt 0.082355 0.034706
vt 0.100561 0.045217
vt 0.079319 0.034706
vt 0.061112 0.045217
vt 0.060692 0.023466
vt 0.042906 0.034706
vt 0.042906 0.013683
vt 0.061112 0.003172
vt 0.079319 0.013683
vt 0.095183 0.996425
vt 0.079896 0.996425
vt 0.079896 0.858492
vt 0.095183 0.858492
vt 0.064608 0.996425
vt 0.064608 0.858492
vt 0.049321 0.996425
vt 0.049321 0.858492
vt 0.034033 0.996425
vt 0.034033 0.858492
vt 0.018745 0.996425
vt 0.018745 0.858492
vt 0.003458 0.996425
vt 0.003458 0.858492
vt 0.265803 0.013683
vt 0.265803 0.034706
vt 0.248437 0.024194
vt 0.247597 0.003172
vt 0.229390 0.013683
vt 0.229390 0.034706
vt 0.247597 0.045217
vt 0.039870 0.034706
vt 0.021664 0.045217
vt 0.021243 0.023466
vt 0.003458 0.034706
vt 0.003458 0.013683
vt 0.021664 0.003172
vt 0.039870 0.013683
vt 0.661335 0.800929
vt 0.669850 0.835530
vt 0.623876 0.846843
vt 0.623876 0.793021
vt 0.678365 0.870131
vt 0.648853 0.894519
vt 0.824705 0.795380
vt 0.824705 0.741558
vt 0.862164 0.749466
vt 0.870679 0.784066
vt 0.849682 0.843056
vt 0.879194 0.818667
vt 0.916654 0.772753
vt 0.916654 0.826575
vt 0.891676 0.725077
vt 0.756566 0.876104
vt 0.756566 0.822282
vt 0.794026 0.830190
vt 0.802541 0.864791
vt 0.781543 0.923780
vt 0.811055 0.899392
vt 0.848515 0.853477
vt 0.848515 0.907299
vt 0.823538 0.805801
vt 0.003458 0.759053
vt 0.028435 0.711377
vt 0.057947 0.735766
vt 0.049432 0.770367
vt 0.003458 0.812876
vt 0.040917 0.804968
vt 0.095407 0.781680
vt 0.070430 0.829356
vt 0.095407 0.727858
vt 0.715825 0.824216
vt 0.715825 0.878039
vt 0.690847 0.776540
vt 0.691540 0.923669
vt 0.071122 0.682228
vt 0.780851 0.776652
vt 0.848989 0.695928
vt 0.027743 0.858505
vt 0.648161 0.747391
vt 0.892369 0.872205
vt 0.824230 0.952929
vt 0.560961 0.544239
vt 0.675497 0.520060
vt 0.675497 0.684626
vt 0.534927 0.650034
vt 0.570082 0.142688
vt 0.684618 0.166867
vt 0.710652 0.272662
vt 0.570082 0.307254
vt 0.736687 0.378456
vt 0.646451 0.453026
vt 0.599128 0.830398
vt 0.508893 0.755828
vt 0.468610 0.919524
vt 0.394357 0.780008
vt 0.851222 0.402635
vt 0.776969 0.542152
vt 0.493657 0.003172
vt 0.567910 0.142688
vt 0.453374 0.166867
vt 0.363139 0.092297
vt 0.208229 0.453026
vt 0.077711 0.542152
vt 0.003458 0.402635
vt 0.117993 0.378456
vt 0.003458 0.238070
vt 0.144028 0.272662
vt 0.427340 0.272662
vt 0.286770 0.238070
vt 0.401306 0.378456
vt 0.286770 0.402635
vt 0.079827 0.092297
vt 0.170062 0.166867
vt 0.210345 0.003172
vt 0.284598 0.142688
vt 0.491541 0.453026
vt 0.361023 0.542152
vt 0.644335 0.003172
vt 0.774853 0.092297
vt 0.470726 0.469670
vt 0.601244 0.380544
vt 0.851222 0.238070
vt 0.567910 0.307254
vt 0.284598 0.307254
vt 0.394357 0.615442
vn 0.177651 -0.577350 -0.796936
vn -0.379234 -0.707107 -0.596810
vn -0.536317 0.000000 -0.844017
vn 0.217578 0.000000 -0.976043
vn -0.796936 -0.577350 -0.177651
vn -0.976043 -0.000000 -0.217579
vn -0.796935 0.577351 -0.177651
vn -0.379233 0.707107 -0.596809
vn 0.177651 0.577350 -0.796936
vn 0.000000 1.000000 0.000000
vn 0.596810 0.707106 -0.379234
vn -0.596808 0.707109 0.379233
vn -0.177650 0.577350 0.796936
vn 0.379233 0.707107 0.596810
vn 0.796936 0.577350 0.177649
vn 0.536317 -0.000000 0.844017
vn 0.976044 -0.000000 0.217575
vn -0.217578 -0.000000 0.976043
vn -0.177650 -0.577350 0.796937
vn 0.379234 -0.707106 0.596811
vn 0.796937 -0.577349 0.177649
vn 0.000000 -1.000000 0.000000
vn 0.596811 -0.707106 -0.379234
vn -0.596809 -0.707108 0.379233
vn -0.844017 -0.000000 0.536317
vn 0.844017 0.000000 -0.536317
vn 0.000000 -1.000000 0.000000
vn 0.000000 -1.000000 0.000000
vn 0.000000 -1.000000 0.000000
vn 0.000000 -1.000000 0.000000
vn 0.000000 -1.000000 0.000000
vn 0.000000 -1.000000 0.000000
vn 0.000000 -1.000000 0.000000
vn 0.000000 1.000000 0.000000
vn 0.000000 1.000000 0.000000
vn 0.000000 1.000000 -0.000000
vn 0.000000 1.000000 0.000000
vn 0.000000 1.000000 0.000000
vn 0.000000 1.000000 -0.000000
vn 0.000000 1.000000 -0.000000
vn 0.840817 0.275818 -0.465780
vn 0.861582 -0.101171 -0.497435
vn 0.861582 -0.101171 -0.497435
vn 0.843381 0.263764 -0.468120
vn 0.000000 -0.101171 -0.994869
vn -0.016916 0.284316 -0.958582
vn -0.016821 0.282721 -0.959055
vn 0.000000 -0.101171 -0.994869
vn -0.861582 -0.101171 -0.497435
vn -0.838743 0.255369 -0.480933
vn -0.836430 0.265515 -0.479465
vn -0.861582 -0.101170 -0.497435
vn -0.861582 -0.101170 0.497435
vn -0.832387 0.228602 0.504849
vn -0.833560 0.223890 0.505026
vn -0.861582 -0.101170 0.497435
vn -0.000000 -0.101171 0.994869
vn -0.019602 0.223852 0.974426
vn -0.020221 0.230925 0.972762
vn -0.000000 -0.101171 0.994869
vn 0.861582 -0.101171 0.497435
vn 0.850439 0.247928 0.463989
vn 0.847960 0.261473 0.461082
vn 0.861582 -0.101171 0.497435
vn 0.000000 -0.361320 -0.932442
vn 0.000000 -0.361320 -0.932442
vn -0.807519 -0.361319 -0.466222
vn -0.807519 -0.361319 -0.466222
vn -0.807519 -0.361319 0.466222
vn -0.807519 -0.361319 0.466222
vn -0.000000 -0.361320 0.932442
vn -0.000000 -0.361320 0.932442
vn 0.807518 -0.361320 0.466221
vn 0.807518 -0.361320 0.466221
vn 0.807518 -0.361320 -0.466221
vn 0.807518 -0.361320 -0.466221
vn -0.039324 0.660949 -0.749399
vn -0.039324 0.660949 -0.749399
vn -0.658735 0.654074 -0.371827
vn -0.658735 0.654074 -0.371827
vn -0.649086 0.620137 0.440587
vn -0.649086 0.620137 0.440588
vn -0.051389 0.586860 0.808056
vn -0.051389 0.586860 0.808056
vn 0.695624 0.636976 0.332218
vn 0.695624 0.636976 0.332218
vn 0.648598 0.688062 -0.325409
vn 0.648598 0.688062 -0.325409
vn 0.536317 0.000000 0.844017
vn 0.536317 0.000000 0.844017
vn 0.536317 0.000000 0.844017
vn 0.536317 0.000000 0.844017
vn 0.573234 -0.786987 0.228153
vn 0.573234 -0.786987 0.228153
vn 0.573234 -0.786987 0.228153
vn 0.573234 -0.786987 0.228153
vn 0.036918 -0.786987 -0.615864
vn 0.036918 -0.786987 -0.615864
vn 0.036918 -0.786987 -0.615864
vn 0.036918 -0.786987 -0.615864
vn -0.536316 -0.000001 -0.844017
vn -0.536316 -0.000001 -0.844017
vn -0.536316 -0.000001 -0.844017
vn -0.536316 -0.000001 -0.844017
vn -0.573234 0.786987 -0.228152
vn -0.573234 0.786987 -0.228152
vn -0.573234 0.786987 -0.228152
vn -0.573234 0.786987 -0.228152
vn -0.036918 0.786987 0.615864
vn -0.036918 0.786987 0.615864
vn -0.036918 0.786987 0.615864
vn -0.036918 0.786987 0.615864
vn -0.766988 -0.417373 0.487370
vn -0.766987 -0.417372 0.487373
vn -0.766988 -0.417373 0.487369
vn -0.766987 -0.417377 0.487369
vn -0.766988 -0.417373 0.487369
vn -0.766991 -0.417372 0.487367
vn -0.766988 -0.417373 0.487369
vn 0.766985 0.417374 -0.487374
vn 0.766983 0.417379 -0.487373
vn 0.766987 0.417376 -0.487369
vn 0.766985 0.417381 -0.487368
vn 0.766989 0.417379 -0.487364
vn 0.766990 0.417374 -0.487365
vn 0.766989 0.417372 -0.487370
vn 0.000000 0.000000 -1.000000
vn 0.000000 0.000000 -1.000000
vn 0.000000 0.000000 -1.000000
vn 0.000000 0.000000 -1.000000
vn -0.361457 -0.786987 -0.500001
vn -0.361457 -0.786987 -0.500001
vn -0.361457 -0.786987 -0.500001
vn -0.361457 -0.786987 -0.500001
vn -0.361457 -0.786987 0.500001
vn -0.361457 -0.786987 0.500001
vn -0.361457 -0.786987 0.500001
vn -0.361457 -0.786987 0.500001
vn -0.000000 -0.000000 1.000000
vn -0.000000 -0.000000 1.000000
vn -0.000000 -0.000000 1.000000
vn -0.000000 -0.000000 1.000000
vn 0.361457 0.786987 0.500000
vn 0.361457 0.786987 0.500000
vn 0.361457 0.786987 0.500000
vn 0.361457 0.786987 0.500000
vn 0.361457 0.786987 -0.500000
vn 0.361457 0.786987 -0.500000
vn 0.361457 0.786987 -0.500000
vn 0.361457 0.786987 -0.500000
vn 0.908735 -0.417374 0.000001
vn 0.908735 -0.417374 -0.000001
vn 0.908735 -0.417374 -0.000000
vn 0.908734 -0.417376 0.000000
vn 0.908735 -0.417374 -0.000001
vn 0.908735 -0.417374 0.000001
vn 0.908734 -0.417376 0.000000
vn -0.908735 0.417374 0.000001
vn -0.908734 0.417376 0.000003
vn -0.908735 0.417375 -0.000000
vn -0.908734 0.417376 0.000000
vn -0.908734 0.417376 -0.000003
vn -0.908735 0.417374 -0.000001
vn -0.908736 0.417372 0.000000
vn -0.577350 -0.577350 0.577350
vn -0.000000 -0.707107 0.707107
vn -0.000000 -0.000000 1.000000
vn -0.707107 0.000000 0.707107
vn 0.577350 -0.577350 0.577350
vn 0.707107 0.000000 0.707107
vn 0.577350 0.577350 0.577350
vn 0.000000 0.707107 0.707107
vn -0.577350 0.577350 0.577350
vn -0.000000 1.000000 0.000000
vn -0.707107 0.707107 0.000000
vn 0.707107 0.707107 0.000000
vn 0.577350 0.577350 -0.577350
vn 0.000000 0.707107 -0.707107
vn -0.577350 0.577350 -0.577350
vn -0.000000 0.000000 -1.000000
vn -0.707107 -0.000000 -0.707107
vn 0.707107 -0.000000 -0.707107
vn 0.577350 -0.577350 -0.577350
vn -0.000000 -0.707107 -0.707107
vn -0.577350 -0.577350 -0.577350
vn -0.000000 -1.000000 0.000000
vn -0.707107 -0.707107 -0.000000
vn 0.707107 -0.707107 0.000000
vn 1.000000 -0.000000 0.000000
vn -1.000000 0.000000 -0.000000
vn -0.577350 -0.577350 0.577350
vn -0.000000 -0.707107 0.707107
vn -0.000000 0.000000 1.000000
vn -0.707107 0.000000 0.707107
vn 0.577350 -0.577350 0.577350
vn 0.707107 -0.000000 0.707107
vn 0.577350 0.577350 0.577350
vn -0.000000 0.707107 0.707107
vn -0.577350 0.577350 0.577350
vn 0.000000 1.000000 -0.000000
vn -0.707107 0.707107 -0.000000
vn 0.707107 0.707107 -0.000000
vn 0.577350 0.577350 -0.577350
vn 0.000000 0.707107 -0.707107
vn -0.577350 0.577350 -0.577350
vn -0.000000 -0.000000 -1.000000
vn -0.707107 -0.000000 -0.707107
vn 0.707107 -0.000000 -0.707107
vn 0.577350 -0.577350 -0.577350
vn -0.000000 -0.707107 -0.707107
vn -0.577350 -0.577350 -0.577350
vn 0.000000 -1.000000 -0.000000
vn -0.707107 -0.707107 0.000000
vn 0.707107 -0.707107 0.000000
vn 1.000000 0.000000 0.000000
vn -1.000000 -0.000000 -0.000000
s 1
g polySurface6
usemtl initialShadingGroup
f 1/1/1 15/2/2 21/44/3 18/31/4
f 15/2/2 2/5/5 16/6/6 21/44/3
f 21/3/3 16/39/6 4/7/7 17/8/8
f 18/4/4 21/3/3 17/8/8 3/9/9
f 3/9/9 17/8/8 22/43/10 9/27/11
f 17/8/8 4/7/7 19/12/12 22/43/10
f 22/10/10 19/34/12 6/13/13 20/14/14
f 9/11/11 22/10/10 20/14/14 5/15/15
f 5/15/15 20/14/14 23/42/16 12/32/17
f 20/14/14 6/13/13 10/18/18 23/42/16
f 23/16/16 10/38/18 8/19/19 11/20/20
f 12/17/17 23/16/16 11/20/20 7/21/21
f 7/21/21 11/20/20 24/41/22 14/33/23
f 11/20/20 8/19/19 13/24/24 24/41/22
f 24/22/22 13/40/24 2/5/5 15/2/2
f 14/23/23 24/22/22 15/2/2 1/1/1
f 2/5/5 13/40/24 25/36/25 16/6/6
f 13/24/24 8/19/19 10/38/18 25/35/25
f 25/25/25 10/18/18 6/13/13 19/34/12
f 16/39/6 25/37/25 19/12/12 4/7/7
f 7/21/21 14/33/23 26/29/26 12/17/17
f 14/23/23 1/1/1 18/31/4 26/28/26
f 26/26/26 18/4/4 3/9/9 9/27/11
f 12/32/17 26/30/26 9/11/11 5/15/15
s 2
f 28/45/27 27/46/28 39/47/29
f 29/48/30 28/45/27 39/47/29
f 30/49/31 29/48/30 39/47/29
f 31/50/32 30/49/31 39/47/29
f 32/51/33 31/50/32 39/47/29
f 27/46/28 32/51/33 39/47/29
s 3
f 33/52/34 34/53/35 40/54/36
f 34/53/35 35/55/37 40/54/36
f 35/55/37 36/56/38 40/54/36
f 36/56/38 37/57/39 40/54/36
f 37/57/39 38/58/40 40/54/36
f 38/58/40 33/52/34 40/54/36
s 4
f 41/59/41 42/60/42 51/61/43 52/62/44
s 5
f 42/63/45 41/64/46 44/65/47 43/66/48
s 6
f 43/66/49 44/65/50 46/67/51 45/68/52
s 7
f 45/68/53 46/67/54 48/69/55 47/70/56
s 8
f 47/70/57 48/69/58 50/71/59 49/72/60
s 9
f 49/72/61 50/71/62 52/62/63 51/61/64
s 5
f 42/63/45 43/66/48 34/73/65 33/74/66
s 6
f 43/66/49 45/68/52 35/75/67 34/73/68
s 7
f 45/68/53 47/70/56 36/76/69 35/75/70
s 8
f 47/70/57 49/72/60 37/77/71 36/76/72
s 9
f 49/72/61 51/61/64 38/78/73 37/77/74
s 4
f 51/61/43 42/60/42 33/79/75 38/78/76
s 5
f 27/80/77 28/81/78 44/65/47 41/64/46
s 6
f 28/81/79 29/82/80 46/67/51 44/65/50
s 7
f 29/82/81 30/83/82 48/69/55 46/67/54
s 8
f 30/83/83 31/84/84 50/71/59 48/69/58
s 9
f 31/84/85 32/85/86 52/62/63 50/71/62
s 4
f 32/85/87 27/86/88 41/59/41 52/62/44
s off
f 53/87/89 54/88/90 60/89/91 59/90/92
f 54/88/93 55/91/94 61/92/95 60/89/96
f 55/91/97 56/93/98 62/94/99 61/92/100
f 56/93/101 57/95/102 63/96/103 62/94/104
f 57/95/105 58/97/106 64/98/107 63/96/108
f 58/97/109 53/99/110 59/100/111 64/98/112
s 10
f 54/101/113 53/102/114 65/103/115
f 55/104/116 54/101/113 65/103/115
f 56/105/117 55/104/116 65/103/115
f 57/106/118 56/105/117 65/103/115
f 58/107/119 57/106/118 65/103/115
f 53/102/114 58/107/119 65/103/115
s 11
f 59/108/120 60/109/121 66/110/122
f 60/109/121 61/111/123 66/110/122
f 61/111/123 62/112/124 66/110/122
f 62/112/124 63/113/125 66/110/122
f 63/113/125 64/114/126 66/110/122
f 64/114/126 59/108/120 66/110/122
s off
f 67/115/127 68/116/128 74/117/129 73/118/130
f 68/116/131 69/119/132 75/120/133 74/117/134
f 69/119/135 70/121/136 76/122/137 75/120/138
f 70/121/139 71/123/140 77/124/141 76/122/142
f 71/123/143 72/125/144 78/126/145 77/124/146
f 72/125/147 67/127/148 73/128/149 78/126/150
s 12
f 68/129/151 67/130/152 79/131/153
f 69/132/154 68/129/151 79/131/153
f 70/133/155 69/132/154 79/131/153
f 71/134/156 70/133/155 79/131/153
f 72/135/157 71/134/156 79/131/153
f 67/130/152 72/135/157 79/131/153
s 13
f 73/136/158 74/137/159 80/138/160
f 74/137/159 75/139/161 80/138/160
f 75/139/161 76/140/162 80/138/160
f 76/140/162 77/141/163 80/138/160
f 77/141/163 78/142/164 80/138/160
f 78/142/164 73/136/158 80/138/160
s 14
f 81/143/165 95/144/166 101/145/167 98/146/168
f 95/144/166 82/147/169 96/148/170 101/145/167
f 101/149/167 96/150/170 84/151/171 97/152/172
f 98/153/168 101/149/167 97/152/172 83/154/173
f 83/154/173 97/152/172 102/155/174 89/156/175
f 97/152/172 84/151/171 99/157/176 102/155/174
f 102/158/174 99/159/176 86/160/177 100/161/178
f 89/162/175 102/158/174 100/161/178 85/163/179
f 85/163/179 100/161/178 103/164/180 92/165/181
f 100/161/178 86/160/177 90/166/182 103/164/180
f 103/167/180 90/168/182 88/169/183 91/170/184
f 92/171/181 103/167/180 91/170/184 87/172/185
f 87/172/185 91/170/184 104/173/186 94/174/187
f 91/170/184 88/169/183 93/175/188 104/173/186
f 104/176/186 93/177/188 82/147/169 95/144/166
f 94/178/187 104/176/186 95/144/166 81/143/165
f 82/147/169 93/177/188 105/179/189 96/148/170
f 93/175/188 88/169/183 90/168/182 105/180/189
f 105/181/189 90/166/182 86/160/177 99/159/176
f 96/150/170 105/182/189 99/157/176 84/151/171
f 87/172/185 94/174/187 106/183/190 92/171/181
f 94/178/187 81/143/165 98/146/168 106/184/190
f 106/185/190 98/153/168 83/154/173 89/156/175
f 92/165/181 106/186/190 89/162/175 85/163/179
s 15
f 107/187/191 121/188/192 127/189/193 124/190/194
f 121/191/192 108/192/195 122/193/196 127/194/193
f 127/194/193 122/193/196 110/195/197 123/196/198
f 124/190/194 127/189/193 123/197/198 109/198/199
f 109/198/199 123/197/198 128/199/200 115/200/201
f 123/196/198 110/195/197 125/201/202 128/202/200
f 128/203/200 125/204/202 112/205/203 126/206/204
f 115/207/201 128/208/200 126/209/204 111/210/205
f 111/210/205 126/209/204 129/211/206 118/212/207
f 126/206/204 112/205/203 116/213/208 129/214/206
f 129/214/206 116/213/208 114/215/209 117/216/210
f 118/212/207 129/211/206 117/217/210 113/218/211
f 113/218/211 117/217/210 130/219/212 120/220/213
f 117/216/210 114/215/209 119/221/214 130/222/212
f 130/223/212 119/224/214 108/192/195 121/191/192
f 120/225/213 130/226/212 121/188/192 107/187/191
f 108/192/195 119/224/214 131/227/215 122/193/196
f 119/221/214 114/215/209 116/213/208 131/228/215
f 131/228/215 116/213/208 112/205/203 125/204/202
f 122/193/196 131/227/215 125/201/202 110/195/197
f 113/218/211 120/220/213 132/229/216 118/212/207
f 120/225/213 107/187/191 124/190/194 132/230/216
f 132/230/216 124/190/194 109/198/199 115/200/201
f 118/212/207 132/229/216 115/207/201 111/210/205
