# This file uses centimeters as units for non-parametric coordinates.

mtllib Wall Brick.mtl
g default
v -0.357561 5.774343 -3.084511
v -0.357561 5.848473 -3.010380
v -0.431692 5.848473 -3.084511
v 0.916477 5.848473 -3.084511
v 0.842346 5.848473 -3.010380
v 0.842346 5.774343 -3.084511
v -0.431692 6.249383 -3.084511
v -0.357561 6.249383 -3.010380
v -0.357561 6.323514 -3.084511
v 0.842346 6.323514 -3.084511
v 0.842346 6.249383 -3.010380
v 0.916477 6.249383 -3.084511
v -0.431692 6.249383 -3.892667
v -0.357561 6.323514 -3.892667
v -0.357561 6.249383 -3.966798
v 0.842346 6.249383 -3.966798
v 0.842346 6.323514 -3.892667
v 0.916477 6.249383 -3.892667
v -0.431692 5.848473 -3.892667
v -0.357561 5.848473 -3.966798
v -0.357561 5.774343 -3.892667
v 0.842346 5.774343 -3.892667
v 0.842346 5.848473 -3.966798
v 0.916477 5.848473 -3.892667
vt 0.408747 0.980623
vt 0.375000 0.980623
vt 0.375000 0.769377
vt 0.408747 0.000000
vt 0.408747 0.033746
vt 0.625000 0.980623
vt 0.591253 0.980623
vt 0.625000 0.769377
vt 0.644377 0.033746
vt 0.375000 0.269377
vt 0.375000 0.480623
vt 0.408747 0.216253
vt 0.591253 0.216253
vt 0.625000 0.269377
vt 0.375000 0.533747
vt 0.375000 0.716254
vt 0.408747 0.480623
vt 0.591253 0.480623
vt 0.625000 0.533747
vt 0.625000 0.716254
vt 0.408747 0.716254
vt 0.591253 0.716253
vt 0.591253 0.769377
vt 0.591253 0.033746
vt 0.408747 0.269377
vt 0.591253 0.269377
vt 0.408747 0.533747
vt 0.591253 0.533747
vt 0.408747 0.769377
vt 0.855623 0.033746
vt 0.855623 0.216253
vt 0.144377 0.033746
vt 0.355623 0.033746
vt 0.355623 0.216253
vt 0.144377 0.216253
vt 0.591253 0.000000
vt 0.644377 0.216253
vt 0.625000 0.480623
vn -0.707104 -0.707109 0.000000
vn -0.707104 -0.707109 0.000000
vn -0.707104 -0.707109 0.000000
vn -0.707104 -0.707109 0.000000
vn 0.000000 -0.707110 0.707104
vn 0.000000 -0.707110 0.707104
vn 0.000000 -0.707110 0.707104
vn 0.000000 -0.707110 0.707104
vn -0.707108 0.000000 0.707105
vn -0.707108 0.000000 0.707105
vn -0.707108 0.000000 0.707105
vn -0.707108 0.000000 0.707105
vn 0.707102 -0.707111 0.000000
vn 0.707102 -0.707111 0.000000
vn 0.707102 -0.707111 0.000000
vn 0.707102 -0.707111 0.000000
vn 0.707106 0.000000 0.707107
vn 0.707106 0.000000 0.707107
vn 0.707106 0.000000 0.707107
vn 0.707106 0.000000 0.707107
vn -0.707109 0.707105 0.000000
vn -0.707109 0.707105 0.000000
vn -0.707109 0.707105 0.000000
vn -0.707109 0.707105 0.000000
vn 0.000000 0.707104 0.707109
vn 0.000000 0.707104 0.707109
vn 0.000000 0.707104 0.707109
vn 0.000000 0.707104 0.707109
vn 0.707107 0.707107 0.000000
vn 0.707107 0.707107 0.000000
vn 0.707107 0.707107 0.000000
vn 0.707107 0.707107 0.000000
vn -0.707107 0.000000 -0.707107
vn -0.707107 0.000000 -0.707107
vn -0.707107 0.000000 -0.707107
vn -0.707107 0.000000 -0.707107
vn 0.000000 0.707104 -0.707109
vn 0.000000 0.707104 -0.707109
vn 0.000000 0.707104 -0.707109
vn 0.000000 0.707104 -0.707109
vn 0.707105 0.000000 -0.707109
vn 0.707105 0.000000 -0.707109
vn 0.707105 0.000000 -0.707109
vn 0.707105 0.000000 -0.707109
vn 0.000000 -0.707110 -0.707104
vn 0.000000 -0.707110 -0.707104
vn 0.000000 -0.707110 -0.707104
vn 0.000000 -0.707110 -0.707104
vn 0.000000 0.000000 1.000000
vn 0.000000 0.000000 1.000000
vn 0.000000 0.000000 1.000000
vn 0.000000 0.000000 1.000000
vn 0.000000 1.000000 0.000000
vn 0.000000 1.000000 0.000000
vn 0.000000 1.000000 0.000000
vn 0.000000 1.000000 0.000000
vn 0.000000 0.000000 -1.000000
vn 0.000000 0.000000 -1.000000
vn 0.000000 0.000000 -1.000000
vn 0.000000 0.000000 -1.000000
vn 0.000000 -1.000000 0.000000
vn 0.000000 -1.000000 0.000000
vn 0.000000 -1.000000 0.000000
vn 0.000000 -1.000000 0.000000
vn 1.000000 0.000000 0.000000
vn 1.000000 0.000000 0.000000
vn 1.000000 0.000000 0.000000
vn 1.000000 0.000000 0.000000
vn -1.000000 0.000000 0.000000
vn -1.000000 0.000000 0.000000
vn -1.000000 0.000000 0.000000
vn -1.000000 0.000000 0.000000
vn -0.577351 -0.577352 0.577348
vn -0.577351 -0.577352 0.577348
vn -0.577351 -0.577352 0.577348
vn 0.577350 -0.577355 0.577346
vn 0.577349 -0.577355 0.577346
vn 0.577349 -0.577355 0.577346
vn -0.577351 0.577346 0.577354
vn -0.577351 0.577346 0.577354
vn -0.577351 0.577346 0.577354
vn 0.577350 0.577349 0.577353
vn 0.577350 0.577349 0.577353
vn 0.577350 0.577349 0.577353
vn -0.577349 0.577347 -0.577355
vn -0.577349 0.577347 -0.577355
vn -0.577349 0.577347 -0.577355
vn 0.577347 0.577350 -0.577354
vn 0.577347 0.577350 -0.577354
vn 0.577347 0.577350 -0.577354
vn -0.577349 -0.577353 -0.577349
vn -0.577349 -0.577353 -0.577349
vn -0.577349 -0.577353 -0.577349
vn 0.577347 -0.577356 -0.577347
vn 0.577347 -0.577356 -0.577347
vn 0.577347 -0.577356 -0.577347
s off
g pCube5
usemtl initialShadingGroup
f 1/1/1 3/2/2 19/3/3 21/29/4
f 2/5/5 1/4/6 6/36/7 5/24/8
f 3/33/9 2/5/10 8/12/11 7/34/12
f 4/6/13 6/7/14 22/23/15 24/8/16
f 5/24/17 4/9/18 12/37/19 11/13/20
f 7/10/21 9/25/22 14/17/23 13/11/24
f 9/25/25 8/12/26 11/13/27 10/26/28
f 10/26/29 12/14/30 18/38/31 17/18/32
f 13/15/33 15/27/34 20/21/35 19/16/36
f 15/27/37 14/17/38 17/18/39 16/28/40
f 16/28/41 18/19/42 24/20/43 23/22/44
f 21/29/45 20/21/46 23/22/47 22/23/48
f 2/5/49 5/24/50 11/13/51 8/12/52
f 9/25/53 10/26/54 17/18/55 14/17/56
f 15/27/57 16/28/58 23/22/59 20/21/60
f 21/29/61 22/23/62 6/7/63 1/1/64
f 4/9/65 24/30/66 18/31/67 12/37/68
f 19/32/69 3/33/70 7/34/71 13/35/72
f 1/4/73 2/5/74 3/33/75
f 4/9/76 5/24/77 6/36/78
f 7/34/79 8/12/80 9/25/81
f 10/26/82 11/13/83 12/37/84
f 13/11/85 14/17/86 15/27/87
f 16/28/88 17/18/89 18/38/90
f 19/16/91 20/21/92 21/29/93
f 22/23/94 23/22/95 24/20/96
