# This file uses centimeters as units for non-parametric coordinates.

mtllib Phase Three Wall.mtl
g default
v 0.743372 0.656246 0.721865
v 0.743372 0.656246 -2.472418
v 0.743372 2.971298 -2.458075
v 0.599926 2.997398 -2.552723
v 0.655706 0.656246 -4.949349
v 0.743372 0.656246 -4.824001
v 0.743372 0.656246 2.887448
v 0.743372 1.203250 0.688352
v 0.243180 0.656246 0.721865
v 0.243180 0.656246 -4.949349
v 0.243180 0.656246 -2.472418
v -0.256715 0.656246 0.721865
v -0.256715 0.656246 -2.472418
v -0.256715 2.971298 -2.458075
v -0.113268 2.997398 -2.552723
v -0.169048 0.656246 -4.949349
v -0.256715 0.656246 -4.824001
v -0.256715 0.656246 2.887448
v -0.256715 1.203250 0.688352
v 0.243180 0.656246 -4.824001
v 0.243180 0.656246 2.887449
v 0.599926 1.284977 0.721865
v 0.655706 0.656246 3.026246
v 0.599926 3.019553 -2.366777
v -0.169048 0.656246 3.026246
v -0.113268 1.284977 0.721865
v -0.113268 3.019553 -2.366777
v -0.113268 3.082264 -2.455082
v 0.599926 3.082264 -2.455082
v 0.243180 0.656246 3.026246
vt 0.283578 0.577114
vt 0.291667 0.563452
vt 0.521340 0.773123
vt 0.516073 0.788735
vt 0.514291 0.060109
vt 0.521340 0.073908
vt 0.459919 0.273501
vt 0.445749 0.266992
vt 0.508646 0.559554
vt 0.511204 0.272254
vt 0.280541 0.552131
vt 0.272000 0.564640
vt 0.576944 -0.502011
vt 0.576944 -0.502011
vt 0.576944 -0.502011
vt 0.576944 -0.502011
vt 0.576944 -0.502011
vt 0.576944 -0.502011
vt 0.576944 -0.502011
vt 0.576944 -0.502011
vt 0.576944 -0.502011
vt 0.576944 -0.502011
vt 0.283578 0.577114
vt 0.516073 0.788735
vt 0.521340 0.773123
vt 0.291667 0.563452
vt 0.514291 0.060109
vt 0.445749 0.266992
vt 0.459919 0.273501
vt 0.521340 0.073908
vt 0.508646 0.559554
vt 0.511204 0.272254
vt 0.280541 0.552131
vt 0.272000 0.564640
vt 0.576944 -0.502011
vt 0.576944 -0.502011
vt 0.576944 -0.502011
vt 0.576944 -0.502011
vt 0.576944 -0.502011
vt 0.576944 -0.502011
vt 0.576944 -0.502011
vt 0.576944 -0.502011
vt 0.576944 -0.502011
vt 0.576944 -0.502011
vt 0.576944 -0.502011
vt 0.576944 -0.502011
vt 0.576944 -0.502011
vt 0.576944 -0.502011
vn 0.596113 0.577589 -0.557710
vn 0.596113 0.577589 -0.557710
vn 0.596113 0.577589 -0.557710
vn 0.596113 0.577589 -0.557710
vn 0.465869 0.857550 0.218113
vn 0.465869 0.857550 0.218113
vn 0.465869 0.857550 0.218113
vn 0.465869 0.857550 0.218113
vn 1.000000 0.000000 0.000000
vn 1.000000 0.000000 0.000000
vn 1.000000 0.000000 0.000000
vn 1.000000 -0.000000 0.000000
vn 1.000000 -0.000000 0.000000
vn 1.000000 -0.000000 0.000000
vn 1.000000 -0.000000 0.000000
vn 1.000000 -0.000000 0.000000
vn 1.000000 -0.000000 0.000000
vn 1.000000 -0.000000 0.000000
vn 0.519562 0.744938 0.418477
vn 0.519562 0.744938 0.418477
vn 0.519562 0.744938 0.418477
vn 0.519562 0.744938 0.418477
vn 0.495315 0.655665 -0.569882
vn 0.495315 0.655665 -0.569882
vn 0.495315 0.655665 -0.569882
vn 0.000000 -1.000000 0.000000
vn 0.000000 -1.000000 0.000000
vn 0.000000 -1.000000 0.000000
vn 0.000000 -1.000000 0.000000
vn 0.000000 -1.000000 0.000000
vn 0.000000 -1.000000 0.000000
vn 0.000000 -1.000000 0.000000
vn 0.000000 -1.000000 0.000000
vn 0.000000 -1.000000 0.000001
vn 0.000000 -1.000000 0.000001
vn 0.000000 -1.000000 0.000001
vn 0.000000 -1.000000 0.000001
vn -0.596113 0.577589 -0.557710
vn -0.596113 0.577589 -0.557710
vn -0.596113 0.577589 -0.557710
vn -0.596113 0.577589 -0.557710
vn -0.465869 0.857550 0.218113
vn -0.465869 0.857550 0.218113
vn -0.465869 0.857550 0.218113
vn -0.465869 0.857550 0.218113
vn -1.000000 0.000000 0.000000
vn -1.000000 0.000000 0.000000
vn -1.000000 0.000000 0.000000
vn -1.000000 0.000000 0.000000
vn -1.000000 0.000000 0.000000
vn -1.000000 0.000000 0.000000
vn -1.000000 0.000000 0.000000
vn -1.000000 0.000000 0.000000
vn -1.000000 0.000000 0.000000
vn -1.000000 0.000000 0.000000
vn -0.519562 0.744938 0.418478
vn -0.519562 0.744937 0.418477
vn -0.519562 0.744937 0.418477
vn -0.519562 0.744937 0.418477
vn -0.495315 0.655665 -0.569882
vn -0.495315 0.655665 -0.569882
vn -0.495315 0.655665 -0.569882
vn 0.000000 -1.000000 0.000000
vn 0.000000 -1.000000 0.000000
vn 0.000000 -1.000000 0.000000
vn 0.000000 -1.000000 0.000000
vn 0.000000 -1.000000 0.000000
vn 0.000000 -1.000000 0.000000
vn 0.000000 -1.000000 0.000000
vn 0.000000 -1.000000 0.000000
vn 0.000000 -1.000000 -0.000001
vn 0.000000 -1.000000 -0.000001
vn 0.000000 -1.000000 -0.000001
vn 0.000000 -1.000000 -0.000001
vn -0.540715 0.685850 0.487070
vn -0.540715 0.685850 0.487070
vn -0.540715 0.685850 0.487070
vn 0.540715 0.685850 0.487070
vn 0.540715 0.685850 0.487070
vn 0.540715 0.685850 0.487070
vn 0.000000 -1.000000 0.000000
vn 0.000000 -1.000000 0.000000
vn 0.000000 -1.000000 0.000000
vn 0.000000 -1.000000 0.000000
vn 0.000000 -1.000000 0.000000
vn 0.000000 -1.000000 0.000000
vn 0.000000 -1.000000 0.000000
vn 0.000000 -1.000000 0.000000
vn 0.000000 -1.000000 -0.000000
vn 0.000000 -1.000000 -0.000000
vn 0.000000 -1.000000 -0.000000
vn 0.000000 -1.000000 -0.000000
vn 0.000000 -1.000000 0.000000
vn 0.000000 -1.000000 0.000000
vn 0.000000 -1.000000 0.000000
vn 0.000000 -1.000000 0.000000
vn 0.000000 0.964736 0.263220
vn 0.000000 0.964736 0.263220
vn 0.000000 0.964736 0.263220
vn 0.000000 0.964736 0.263220
vn 0.000000 0.871911 0.489664
vn 0.000000 0.871911 0.489664
vn 0.000000 0.871911 0.489664
vn 0.000000 0.871911 0.489664
vn 0.000000 0.815317 0.579016
vn 0.000000 0.815317 0.579016
vn 0.000000 0.815317 0.579016
vn 0.000000 0.815317 0.579016
vn 0.000000 0.754755 -0.656007
vn 0.000000 0.754755 -0.656007
vn 0.000000 0.754755 -0.656007
vn 0.000000 0.754755 -0.656007
vn 0.000000 0.715337 -0.698779
vn 0.000000 0.715337 -0.698779
vn 0.000000 0.715337 -0.698779
vn 0.000000 0.715337 -0.698779
s off
g polySurface32 polySurface27
usemtl initialShadingGroup
f 4/1/1 3/2/2 6/3/3 5/4/4
f 23/5/5 7/6/6 8/7/7 22/8/8
f 6/3/9 3/2/10 2/9/11
f 8/7/12 7/6/13 1/10/14
f 3/2/15 8/7/16 1/10/17 2/9/18
f 3/2/19 24/11/20 22/8/21 8/7/22
f 29/12/23 3/2/24 4/1/25
f 9/13/26 11/14/27 2/15/28 1/16/29
f 7/17/30 21/18/31 9/13/32 1/16/33
f 6/19/34 20/20/35 10/21/36 5/22/37
f 15/23/38 16/24/39 17/25/40 14/26/41
f 25/27/42 26/28/43 19/29/44 18/30/45
f 17/25/46 13/31/47 14/26/48
f 19/29/49 12/32/50 18/30/51
f 14/26/52 13/31/53 12/32/54 19/29/55
f 14/26/56 19/29/57 26/28/58 27/33/59
f 14/26/60 28/34/61 15/23/62
f 9/35/63 12/36/64 13/37/65 11/38/66
f 21/39/67 18/40/68 12/36/69 9/35/70
f 20/41/71 17/42/72 16/43/73 10/44/74
f 27/33/75 28/34/76 14/26/77
f 24/11/78 3/2/79 29/12/80
f 11/14/81 20/20/82 6/19/83 2/15/84
f 11/38/85 13/37/86 17/42/87 20/41/88
f 30/45/89 21/18/90 7/17/91 23/46/92
f 30/47/93 25/48/94 18/40/95 21/39/96
f 23/5/97 22/8/98 26/28/99 25/27/100
f 22/8/101 24/11/102 27/33/103 26/28/104
f 28/34/105 27/33/106 24/11/107 29/12/108
f 29/12/109 4/1/110 15/23/111 28/34/112
f 4/1/113 5/4/114 16/24/115 15/23/116
g default
v 0.743372 3.268468 -2.947002
v 0.599926 3.360194 -2.849472
v 0.743372 1.050139 -5.214080
v 0.599926 3.410203 -5.214080
v 0.743372 3.322511 -5.214080
v -0.256715 3.268468 -2.947002
v -0.113268 3.360194 -2.849472
v -0.256715 1.050139 -5.214080
v -0.113268 3.410203 -5.214080
v -0.256715 3.322511 -5.214080
v 0.243180 3.410204 -5.214080
v 0.243180 3.322512 -5.214080
v 0.243180 1.050139 -5.214080
v 0.599926 3.268638 -2.817453
v 0.655706 0.927485 -5.214080
v 0.599926 3.353504 -2.719812
v -0.169048 0.927485 -5.214080
v -0.113268 3.268638 -2.817453
v -0.113268 3.353504 -2.719812
v 0.243180 0.927485 -5.214080
vt 0.283825 0.596656
vt 0.283578 0.577114
vt 0.516073 0.788735
vt 0.501679 0.796184
vt 0.269963 0.581582
vt 0.288033 0.807619
vt 0.272022 0.807348
vt 0.272000 0.564640
vt 0.283825 0.596656
vt 0.501679 0.796184
vt 0.516073 0.788735
vt 0.283578 0.577114
vt 0.269963 0.581582
vt 0.272022 0.807348
vt 0.288033 0.807619
vt 0.272000 0.564640
vt 0.576944 -0.502011
vt 0.576944 -0.502011
vt 0.576944 -0.502011
vt 0.576944 -0.502011
vt 0.576944 -0.502011
vt 0.576944 -0.502011
vt 0.576944 -0.502011
vt 0.576944 -0.502011
vt 0.576944 -0.502011
vt 0.576944 -0.502011
vt 0.576944 -0.502011
vt 0.576944 -0.502011
vt 0.576944 -0.502011
vt 0.576944 -0.502011
vt 0.576944 -0.502011
vt 0.576944 -0.502011
vn 0.610592 -0.562619 0.557349
vn 0.610592 -0.562619 0.557349
vn 0.610592 -0.562619 0.557349
vn 0.610592 -0.562619 0.557349
vn 0.534765 0.844788 0.018978
vn 0.534765 0.844788 0.018978
vn 0.534765 0.844788 0.018978
vn 0.534765 0.844788 0.018978
vn 1.000000 0.000000 0.000000
vn 1.000000 0.000000 0.000000
vn 1.000000 0.000000 0.000000
vn 0.509144 -0.649605 0.564611
vn 0.509144 -0.649605 0.564611
vn 0.509144 -0.649605 0.564611
vn -0.610592 -0.562619 0.557349
vn -0.610592 -0.562619 0.557349
vn -0.610592 -0.562619 0.557349
vn -0.610592 -0.562619 0.557349
vn -0.534765 0.844788 0.018978
vn -0.534765 0.844788 0.018978
vn -0.534765 0.844788 0.018978
vn -0.534765 0.844788 0.018978
vn -1.000000 0.000000 0.000000
vn -1.000000 0.000000 0.000000
vn -1.000000 0.000000 0.000000
vn -0.558691 0.828275 0.042732
vn -0.558691 0.828275 0.042732
vn -0.558691 0.828274 0.042732
vn 0.000001 0.000000 -1.000000
vn 0.000001 0.000000 -1.000000
vn 0.000001 0.000000 -1.000000
vn 0.000001 0.000000 -1.000000
vn -0.000001 0.000000 -1.000000
vn -0.000001 0.000000 -1.000000
vn -0.000001 0.000000 -1.000000
vn -0.000001 0.000000 -1.000000
vn 0.000001 0.000000 -1.000000
vn 0.000001 0.000000 -1.000000
vn 0.000001 0.000000 -1.000000
vn 0.000001 0.000000 -1.000000
vn -0.000001 0.000000 -1.000000
vn -0.000001 0.000000 -1.000000
vn -0.000001 0.000000 -1.000000
vn -0.000001 0.000000 -1.000000
vn -0.509143 -0.649604 0.564613
vn -0.509143 -0.649604 0.564613
vn -0.509143 -0.649604 0.564613
vn 0.558690 0.828275 0.042732
vn 0.558690 0.828275 0.042732
vn 0.558690 0.828275 0.042732
vn 0.000000 0.999776 0.021144
vn 0.000000 0.999776 0.021144
vn 0.000000 0.999776 0.021144
vn 0.000000 0.999776 0.021144
vn 0.000000 0.998672 0.051525
vn 0.000000 0.998672 0.051525
vn 0.000000 0.998672 0.051525
vn 0.000000 0.998672 0.051525
vn 0.000000 0.000000 -1.000000
vn 0.000000 0.000000 -1.000000
vn 0.000000 0.000000 -1.000000
vn 0.000000 0.000000 -1.000000
vn 0.000000 0.000000 -1.000000
vn 0.000000 0.000000 -1.000000
vn 0.000000 0.000000 -1.000000
vn 0.000000 0.000000 -1.000000
vn 0.000000 -0.754755 0.656007
vn 0.000000 -0.754755 0.656007
vn 0.000000 -0.754755 0.656007
vn 0.000000 -0.754755 0.656007
vn 0.000000 -0.715337 0.698779
vn 0.000000 -0.715337 0.698779
vn 0.000000 -0.715337 0.698779
vn 0.000000 -0.715337 0.698779
s off
g polySurface27 polySurface31
usemtl initialShadingGroup
f 31/49/117 44/50/118 45/51/119 33/52/120
f 32/53/121 31/49/122 35/54/123 34/55/124
f 35/54/125 31/49/126 33/52/127
f 44/50/128 31/49/129 46/56/130
f 36/57/131 38/58/132 47/59/133 48/60/134
f 37/61/135 39/62/136 40/63/137 36/57/138
f 40/63/139 38/58/140 36/57/141
f 36/57/142 49/64/143 37/61/144
f 34/65/145 35/66/146 42/67/147 41/68/148
f 39/69/149 41/70/150 42/71/151 40/72/152
f 42/67/153 35/66/154 33/73/155 43/74/156
f 40/72/157 42/71/158 43/75/159 38/76/160
f 48/60/161 49/64/162 36/57/163
f 46/56/164 31/49/165 32/53/166
f 32/53/167 34/55/168 39/62/169 37/61/170
f 46/56/171 32/53/172 37/61/173 49/64/174
f 43/74/175 33/73/176 45/77/177 50/78/178
f 38/76/179 43/75/180 50/79/181 47/80/182
f 44/50/183 46/56/184 49/64/185 48/60/186
f 45/51/187 44/50/188 48/60/189 47/59/190
g default
v 0.655706 1.231393 3.601763
v 0.743372 1.375264 3.601763
v 0.243180 1.231393 3.601763
v -0.169048 1.231393 3.601763
v -0.256715 1.375264 3.601763
v 0.243180 1.375264 3.601763
v 0.743372 3.620403 3.601763
v 0.600580 3.708220 3.596986
v 0.243180 3.621850 3.601763
v 0.243190 3.708220 3.596986
v -0.256715 3.620403 3.601763
v -0.113922 3.708220 3.596986
v 0.743372 1.928254 1.395163
v 0.715660 1.981644 1.331460
v 0.601188 1.825684 1.397597
v 0.715660 4.148806 1.334688
v 0.743372 4.202771 1.399486
v -0.256715 1.928254 1.395163
v -0.229003 1.981644 1.331460
v -0.114531 1.825684 1.397597
v -0.229003 4.148804 1.334786
v -0.256715 4.202718 1.399714
v 0.617386 4.262773 1.334195
v 0.638823 4.322978 1.398850
v -0.113914 4.262774 1.334223
v -0.134599 4.322967 1.398894
vt 0.576944 -0.502011
vt 0.576944 -0.502011
vt 0.576944 -0.502011
vt 0.576944 -0.502011
vt 0.576944 -0.502011
vt 0.576944 -0.502011
vt 0.576944 -0.502011
vt 0.576944 -0.502011
vt 0.576944 -0.502011
vt 0.576944 -0.502011
vt 0.576944 -0.502011
vt 0.576944 -0.502011
vt 0.576944 -0.502011
vt 0.576944 -0.502011
vt 0.431380 0.260408
vt 0.432896 0.255500
vt 0.447731 0.262483
vt 0.431380 0.260408
vt 0.432896 0.255500
vt 0.218493 0.251183
vt 0.216798 0.256153
vt 0.494548 0.055895
vt 0.514291 0.060109
vt 0.494548 0.055895
vt 0.447917 0.262539
vt 0.514291 0.060109
vt 0.218831 0.251220
vt 0.202295 0.257650
vt 0.285845 0.045337
vt 0.292355 0.045666
vt 0.288669 0.045480
vt 0.282041 0.045145
vt 0.202189 0.257684
vt 0.217062 0.256167
vt 0.200264 0.262807
vt 0.200283 0.262764
vn 0.000001 0.000000 1.000000
vn 0.000001 0.000000 1.000000
vn 0.000001 0.000000 1.000000
vn 0.000001 0.000000 1.000000
vn -0.000001 0.000000 1.000000
vn -0.000001 0.000000 1.000000
vn -0.000001 0.000000 1.000000
vn -0.000001 0.000000 1.000000
vn 0.000000 -0.000000 1.000000
vn 0.000000 -0.000000 1.000000
vn 0.000000 -0.000000 1.000000
vn 0.000000 -0.000000 1.000000
vn 0.000000 -0.000000 1.000000
vn 0.000000 -0.000000 1.000000
vn 0.000000 -0.000000 1.000000
vn 0.000000 -0.000000 1.000000
vn 0.000093 0.054840 0.998495
vn 0.000093 0.054840 0.998495
vn 0.000093 0.054840 0.998495
vn 0.000093 0.054840 0.998495
vn -0.000093 0.054840 0.998495
vn -0.000093 0.054840 0.998495
vn -0.000093 0.054840 0.998495
vn -0.000093 0.054840 0.998495
vn 0.419427 -0.597621 -0.683323
vn 0.419427 -0.597621 -0.683323
vn 0.419427 -0.597621 -0.683323
vn -0.918377 0.000702 -0.395705
vn -0.918377 0.000702 -0.395705
vn -0.918377 0.000702 -0.395705
vn -0.918377 0.000702 -0.395705
vn 0.717971 -0.671444 -0.183523
vn 0.717971 -0.671444 -0.183523
vn 0.717971 -0.671444 -0.183523
vn 0.717971 -0.671444 -0.183523
vn -0.717971 -0.671444 -0.183523
vn -0.717971 -0.671444 -0.183523
vn -0.717971 -0.671444 -0.183523
vn -0.717971 -0.671444 -0.183523
vn 0.626664 0.750563 0.209636
vn 0.626664 0.750563 0.209636
vn 0.626664 0.750563 0.209636
vn 0.626664 0.750563 0.209636
vn 1.000000 0.000000 0.000000
vn 1.000000 0.000000 0.000000
vn 1.000000 0.000000 0.000000
vn 1.000000 0.000000 0.000000
vn -1.000000 -0.000000 0.000000
vn -1.000000 -0.000000 0.000000
vn -1.000000 -0.000000 0.000000
vn -1.000000 -0.000000 0.000000
vn -0.600797 0.770646 0.212478
vn -0.600797 0.770646 0.212478
vn -0.600797 0.770646 0.212478
vn -0.600797 0.770647 0.212478
vn 0.000001 0.963046 0.269337
vn 0.000001 0.963046 0.269337
vn 0.000001 0.963046 0.269337
vn 0.000001 0.963046 0.269337
vn 0.918231 0.000673 -0.396044
vn 0.918231 0.000673 -0.396044
vn 0.918231 0.000673 -0.396044
vn 0.918231 0.000673 -0.396044
vn -0.419427 -0.597620 -0.683324
vn -0.419427 -0.597620 -0.683324
vn -0.419427 -0.597620 -0.683324
vn -0.527439 0.530240 -0.663818
vn -0.527439 0.530240 -0.663818
vn -0.527439 0.530240 -0.663818
vn -0.527439 0.530240 -0.663818
vn 0.573793 0.493828 -0.653372
vn 0.573793 0.493828 -0.653372
vn 0.573793 0.493828 -0.653372
vn 0.573793 0.493828 -0.653372
vn -0.000036 0.731920 -0.681390
vn -0.000036 0.731920 -0.681390
vn -0.000036 0.731920 -0.681390
vn -0.000036 0.731920 -0.681390
vn -0.000052 0.001512 -0.999999
vn -0.000052 0.001512 -0.999999
vn -0.000052 0.001512 -0.999999
vn -0.000052 0.001512 -0.999999
vn 0.000000 -0.965521 -0.260325
vn 0.000000 -0.965521 -0.260325
vn 0.000000 -0.965521 -0.260325
vn 0.000000 -0.965521 -0.260325
vn 0.000000 -0.390408 -0.920642
vn 0.000000 -0.390408 -0.920642
vn 0.000000 -0.390408 -0.920642
vn 0.000000 -0.390408 -0.920642
vn -0.000074 -0.004627 -0.999989
vn -0.000074 -0.004627 -0.999989
vn -0.000074 -0.004627 -0.999989
vn -0.000074 -0.004627 -0.999989
s off
g polySurface27 polySurface30
usemtl initialShadingGroup
f 56/81/191 55/82/192 54/83/193 53/84/194
f 52/85/195 56/81/196 53/86/197 51/87/198
f 59/88/199 61/89/200 55/82/201 56/81/202
f 57/90/203 59/88/204 56/81/205 52/85/206
f 57/90/207 58/91/208 60/92/209 59/88/210
f 59/88/211 60/93/212 62/94/213 61/89/214
f 64/95/215 63/96/216 65/97/217
f 69/98/218 68/99/219 72/100/220 71/101/221
f 52/102/222 51/103/223 65/97/224 63/96/225
f 55/104/226 68/99/227 70/105/228 54/106/229
f 67/107/230 74/108/231 58/109/232 57/110/233
f 52/102/234 63/96/235 67/107/236 57/110/237
f 55/104/238 61/111/239 72/100/240 68/99/241
f 61/111/242 62/112/243 76/113/244 72/100/245
f 58/109/246 74/108/247 76/113/248 62/112/249
f 63/96/250 64/95/251 66/114/252 67/107/253
f 68/99/254 69/98/255 70/105/256
f 71/101/257 72/100/258 76/113/259 75/115/260
f 67/107/261 66/114/262 73/116/263 74/108/264
f 74/108/265 73/116/266 75/115/267 76/113/268
f 69/98/269 71/101/270 66/114/271 64/95/272
f 65/97/273 51/103/274 54/106/275 70/105/276
f 65/97/277 70/105/278 69/98/279 64/95/280
f 75/115/281 73/116/282 66/114/283 71/101/284
g default
v 0.599926 4.015896 -2.222950
v 0.743372 3.939215 -2.149245
v 0.599926 3.914478 -2.285960
v 0.599926 3.977189 -2.374264
v -0.113268 4.015896 -2.222950
v -0.256715 3.939215 -2.149245
v -0.113268 3.914478 -2.285960
v -0.113268 3.977189 -2.374264
v 0.743372 2.289122 0.781628
v 0.599926 2.206344 0.745236
v 0.743372 4.525779 0.781551
v -0.256715 2.289122 0.781628
v -0.113268 2.206344 0.745236
v -0.256715 4.525821 0.781793
v 0.639042 4.646244 0.780930
v -0.134713 4.646260 0.781017
v 0.715660 2.328952 0.836760
v 0.580463 2.251353 0.804986
v -0.229003 2.328952 0.836760
v -0.229003 4.468582 0.840086
v 0.715660 4.468584 0.839988
v -0.093805 2.251353 0.804986
v -0.113914 4.582553 0.839523
v 0.617386 4.582551 0.839495
vt 0.265267 0.544793
vt 0.276190 0.532350
vt 0.272000 0.564640
vt 0.265267 0.544793
vt 0.272000 0.564640
vt 0.276190 0.532350
vt 0.280541 0.552131
vt 0.280541 0.552131
vt 0.428837 0.264865
vt 0.431380 0.260408
vt 0.445749 0.266992
vt 0.443230 0.271338
vt 0.428837 0.264865
vt 0.431380 0.260408
vt 0.216798 0.256153
vt 0.217866 0.261121
vt 0.218130 0.261154
vt 0.201429 0.267739
vt 0.201410 0.267775
vt 0.443230 0.271338
vt 0.217062 0.256167
vt 0.445749 0.266992
vt 0.200264 0.262807
vt 0.200283 0.262764
vn 0.542161 0.814062 -0.208243
vn 0.542161 0.814062 -0.208243
vn 0.542161 0.814062 -0.208242
vn -0.542161 0.814062 -0.208242
vn -0.542161 0.814062 -0.208242
vn -0.542161 0.814062 -0.208242
vn -0.569288 -0.670305 -0.476028
vn -0.569288 -0.670305 -0.476028
vn -0.569288 -0.670305 -0.476028
vn 0.569288 -0.670305 -0.476028
vn 0.569288 -0.670305 -0.476028
vn 0.569288 -0.670305 -0.476028
vn 0.000000 0.968805 -0.247823
vn 0.000000 0.968805 -0.247823
vn 0.000000 0.968805 -0.247823
vn 0.000000 0.968805 -0.247823
vn 0.259421 -0.722913 0.640388
vn 0.259421 -0.722913 0.640388
vn 0.259421 -0.722913 0.640388
vn 0.259421 -0.722913 0.640388
vn -0.898495 -0.000350 0.438983
vn -0.898495 -0.000350 0.438983
vn -0.898495 -0.000350 0.438983
vn -0.898495 -0.000350 0.438983
vn 1.000000 -0.000000 0.000000
vn 1.000000 -0.000000 0.000000
vn 1.000000 -0.000000 0.000000
vn 0.643377 0.749100 -0.157844
vn 0.643377 0.749100 -0.157844
vn 0.643377 0.749100 -0.157844
vn 0.643377 0.749100 -0.157844
vn 0.528559 -0.739635 -0.416611
vn 0.528559 -0.739635 -0.416611
vn 0.528559 -0.739635 -0.416611
vn 0.528559 -0.739635 -0.416611
vn -1.000000 -0.000000 0.000000
vn -1.000000 -0.000000 0.000000
vn -1.000000 -0.000000 0.000000
vn -0.617067 0.770430 -0.160206
vn -0.617067 0.770430 -0.160206
vn -0.617067 0.770430 -0.160206
vn -0.617067 0.770430 -0.160206
vn -0.528559 -0.739635 -0.416611
vn -0.528559 -0.739635 -0.416611
vn -0.528559 -0.739635 -0.416611
vn -0.528559 -0.739635 -0.416611
vn -0.000001 0.978684 -0.205371
vn -0.000001 0.978684 -0.205371
vn -0.000001 0.978684 -0.205371
vn -0.000001 0.978684 -0.205371
vn 0.898712 -0.000316 0.438540
vn 0.898712 -0.000316 0.438540
vn 0.898712 -0.000316 0.438540
vn 0.898712 -0.000316 0.438540
vn -0.259421 -0.722913 0.640388
vn -0.259421 -0.722913 0.640388
vn -0.259421 -0.722913 0.640388
vn -0.259421 -0.722913 0.640388
vn -0.487657 0.497333 0.717531
vn -0.487657 0.497333 0.717531
vn -0.487657 0.497333 0.717531
vn -0.487657 0.497333 0.717531
vn 0.534234 0.465059 0.705913
vn 0.534234 0.465059 0.705913
vn 0.534234 0.465059 0.705913
vn 0.534234 0.465059 0.705913
vn 0.000064 0.676627 0.736326
vn 0.000064 0.676627 0.736326
vn 0.000064 0.676627 0.736326
vn 0.000064 0.676627 0.736326
vn 0.000000 -0.815318 -0.579013
vn 0.000000 -0.815318 -0.579013
vn 0.000000 -0.815318 -0.579013
vn 0.000000 -0.815318 -0.579013
vn 0.000000 -0.871196 -0.490935
vn 0.000000 -0.871196 -0.490935
vn 0.000000 -0.871196 -0.490935
vn 0.000000 -0.871196 -0.490935
vn 0.000052 -0.001532 0.999999
vn 0.000052 -0.001532 0.999999
vn 0.000052 -0.001532 0.999999
vn 0.000052 -0.001532 0.999999
vn 0.000000 -0.798740 0.601676
vn 0.000000 -0.798740 0.601676
vn 0.000000 -0.798740 0.601676
vn 0.000000 -0.798740 0.601676
vn 0.000000 -0.378927 0.925427
vn 0.000000 -0.378927 0.925427
vn 0.000000 -0.378927 0.925427
vn 0.000000 -0.378927 0.925427
vn 0.000075 0.004627 0.999989
vn 0.000075 0.004627 0.999989
vn 0.000075 0.004627 0.999989
vn 0.000075 0.004627 0.999989
s off
g polySurface27 polySurface29
usemtl initialShadingGroup
f 77/117/285 78/118/286 80/119/287
f 81/120/288 84/121/289 82/122/290
f 82/122/291 84/121/292 83/123/293
f 80/119/294 78/118/295 79/124/296
f 77/117/297 80/119/298 84/121/299 81/120/300
f 85/125/301 93/126/302 94/127/303 86/128/304
f 88/129/305 95/130/306 96/131/307 90/132/308
f 78/118/309 87/133/310 85/125/311
f 91/134/312 87/133/313 78/118/314 77/117/315
f 79/124/316 78/118/317 85/125/318 86/128/319
f 82/122/320 88/129/321 90/132/322
f 92/135/323 81/120/324 82/122/325 90/132/326
f 83/123/327 89/136/328 88/129/329 82/122/330
f 91/134/331 77/117/332 81/120/333 92/135/334
f 93/126/335 85/125/336 87/133/337 97/137/338
f 95/130/339 88/129/340 89/136/341 98/138/342
f 90/132/343 96/131/344 99/139/345 92/135/346
f 97/137/347 87/133/348 91/134/349 100/140/350
f 100/140/351 91/134/352 92/135/353 99/139/354
f 80/119/355 79/124/356 83/123/357 84/121/358
f 79/124/359 86/128/360 89/136/361 83/123/362
f 96/131/363 95/130/364 93/126/365 97/137/366
f 86/128/367 94/127/368 98/138/369 89/136/370
f 94/127/371 93/126/372 95/130/373 98/138/374
f 99/139/375 96/131/376 97/137/377 100/140/378
